<svg width="403" height="68" viewBox="0 0 403 68" fill="none" xmlns="http://www.w3.org/2000/svg">
<path fill-rule="evenodd" clip-rule="evenodd" d="M33.9944 63.9248C17.3576 63.9248 3.87082 50.4381 3.87082 33.8013C3.87082 17.1645 17.3576 3.6777 33.9944 3.6777C50.6312 3.6777 64.118 17.1645 64.118 33.8013C64.118 50.4381 50.6312 63.9248 33.9944 63.9248ZM0.39502 33.8013C0.39502 15.2449 15.438 0.201904 33.9944 0.201904C52.5508 0.201904 67.5938 15.2449 67.5938 33.8013C67.5938 52.3577 52.5508 67.4006 33.9944 67.4006C15.438 67.4006 0.39502 52.3577 0.39502 33.8013ZM27.0206 43.1162C28.0402 43.5426 29.2173 43.7558 30.552 43.7558H33.4995C34.8342 43.7558 36.0113 43.5426 37.0309 43.1162C38.0505 42.6713 38.8383 42.0596 39.3944 41.281C39.9691 40.4839 40.2564 39.5756 40.2564 38.556V37.2491C40.2564 36.5447 39.9876 35.8495 39.45 35.1636C38.9125 34.4777 38.208 33.9309 37.3368 33.523V33.4952C38.0227 33.0874 38.5695 32.5684 38.9773 31.9381C39.4037 31.2893 39.6169 30.659 39.6169 30.0473V28.8238C39.6169 27.8413 39.3481 26.9793 38.8105 26.2378C38.2915 25.4777 37.5407 24.8938 36.5582 24.486C35.5942 24.0596 34.482 23.8464 33.2214 23.8464H30.8301C29.5695 23.8464 28.448 24.0596 27.4655 24.486C26.5015 24.8938 25.7508 25.4777 25.2132 26.2378C24.6941 26.9793 24.4346 27.8413 24.4346 28.8238V30.0473C24.4346 30.6775 24.6385 31.3078 25.0463 31.9381C25.4727 32.5684 26.0288 33.0874 26.7147 33.4952V33.523C25.8435 33.9309 25.139 34.4777 24.6014 35.1636C24.0639 35.8495 23.7951 36.5447 23.7951 37.2491V38.556C23.7951 39.5756 24.0731 40.4839 24.6293 41.281C25.2039 42.0596 26.001 42.6713 27.0206 43.1162ZM35.0566 31.4376C34.5932 31.7898 33.9815 31.9659 33.2214 31.9659H30.8301C30.07 31.9659 29.449 31.7898 28.967 31.4376C28.5036 31.0854 28.2719 30.6219 28.2719 30.0473V28.8794C28.2719 28.3603 28.5036 27.9432 28.967 27.6281C29.449 27.313 30.07 27.1554 30.8301 27.1554H33.2214C33.9815 27.1554 34.5932 27.313 35.0566 27.6281C35.5386 27.9432 35.7796 28.3603 35.7796 28.8794V30.0473C35.7796 30.6219 35.5386 31.0854 35.0566 31.4376ZM35.6128 39.8907C35.0752 40.2615 34.3708 40.4468 33.4995 40.4468H30.552C29.6807 40.4468 28.9763 40.2615 28.4387 39.8907C27.9011 39.5014 27.6323 38.9916 27.6323 38.3614V37.3325C27.6323 36.6837 27.9197 36.1646 28.4943 35.7754C29.0875 35.3861 29.8661 35.1914 30.8301 35.1914H33.2214C34.1854 35.1914 34.9547 35.3861 35.5294 35.7754C36.1226 36.1646 36.4192 36.6837 36.4192 37.3325V38.3614C36.4192 38.9916 36.1504 39.5014 35.6128 39.8907ZM42.1041 36.1646H47.1649V41.2254H50.9465V36.1646H56.0073V32.8835H50.9465V27.8227H47.1649V32.8835H42.1041V36.1646ZM17.2949 28.2396L12.8181 30.4919V26.9327L18.2125 24.0686H21.1322V43.5331H17.2949V28.2396Z" fill="#EFEFEF"/>
<path d="M105.216 38.3875C105.174 38.9314 105.024 39.4614 104.774 39.9463C104.524 40.4311 104.179 40.8609 103.76 41.2102C103.341 41.5595 102.856 41.8213 102.334 41.98C101.813 42.1388 101.264 42.1912 100.722 42.1344H94.661V34.3486L100.164 34.2165C103.195 34.2165 105.242 35.8119 105.242 38.2554V38.3886L105.216 38.3875ZM104.364 26.5373C104.262 27.5158 103.777 28.414 103.015 29.0363C102.253 29.6585 101.276 29.9543 100.296 29.859H94.661V22.9503H99.8747C102.48 22.9503 104.368 24.3858 104.368 26.272L104.364 26.5373ZM106.225 31.7452C109.121 30.3097 110.001 28.8487 110.001 25.98C110.028 24.5284 109.634 23.1001 108.864 21.8688C108.095 20.6375 106.984 19.6563 105.668 19.0447C104.204 18.4654 102.477 18.3275 97.5575 18.3275H86.5508V22.9503H88.7313V42.161H86.5508V46.7838H101.76C107.263 46.7838 111.039 43.622 111.039 38.8393C111.153 37.2875 110.739 35.7427 109.866 34.455C108.993 33.1673 107.71 32.2121 106.226 31.7441M119.55 33.1263C119.752 31.9867 120.341 30.9519 121.218 30.1966C122.095 29.4413 123.206 29.0118 124.363 28.9808H124.495C125.625 28.9893 126.705 29.4435 127.502 30.2445C128.299 31.0455 128.747 32.1286 128.749 33.2583L119.55 33.1263ZM119.255 36.9844H134.57C134.651 34.1697 133.912 31.3922 132.443 28.9901C131.556 27.6147 130.336 26.4859 128.895 25.7087C127.455 24.9315 125.842 24.531 124.205 24.5445C118.249 24.5445 113.862 29.2739 113.862 35.8374C113.862 42.4008 118.249 47.1302 124.205 47.1302C129.31 47.1302 133.139 44.2616 134.123 39.5576L128.725 39.6897C128.445 40.6248 127.862 41.4401 127.067 42.0077C126.273 42.5752 125.313 42.8627 124.337 42.8249C123.38 42.8515 119.844 42.5584 119.259 36.9786M159.328 46.7572H162.491V32.4369L152.574 32.4102V32.4369L152.44 35.0669H159.195C159.216 35.8032 159.172 36.5399 159.062 37.2682C158.713 39.0988 157.757 40.7581 156.349 41.9777C154.94 43.1973 153.161 43.9056 151.299 43.9881C146.407 43.9881 142.685 38.9922 142.685 32.138C142.685 23.4218 147.842 20.4199 151.299 20.4199C152.468 20.4911 153.61 20.8069 154.649 21.347C155.689 21.887 156.604 22.6393 157.334 23.5551C158.088 24.567 158.622 25.7252 158.903 26.9556H162.067V18.331H159.057V22.4498C158.224 20.9404 156.993 19.6886 155.497 18.8306C154.002 17.9726 152.3 17.5413 150.576 17.5837C144.115 17.5837 138.93 24.1471 138.93 32.4381C138.93 40.729 144.088 47.1314 150.708 47.1314C153.079 47.1078 155.365 46.2519 157.169 44.7134C158.003 43.9285 158.728 43.0349 159.324 42.0567L159.328 46.7572ZM180.166 39.1324C179.914 40.6544 179.141 42.0413 177.978 43.0547C176.815 44.0681 175.335 44.6448 173.793 44.6856C172.658 44.7084 171.558 44.2932 170.721 43.5262C169.884 42.7592 169.375 41.6994 169.299 40.5668C169.299 37.858 171.48 36.7434 178.153 35.864L180.174 35.5721L180.166 39.1324ZM180.166 46.7583H186.387L186.095 44.1272H183.062V32.3303C183.062 26.9359 179.286 24.9431 174.793 24.9431C172.708 24.8946 170.667 25.5501 169 26.8038C167.699 27.9285 166.825 29.4681 166.528 31.1624H169.854C170.433 28.3181 172.033 27.3622 175.068 27.3622C178.125 27.3622 179.986 28.9298 179.986 31.3478V33.4738L177.967 33.6071C169.277 34.4575 165.655 36.4503 165.655 40.5679V40.9931C165.807 42.7361 166.634 44.3508 167.959 45.4925C169.285 46.6342 171.004 47.2124 172.751 47.1036C174.256 47.1163 175.736 46.7231 177.037 45.9655C178.337 45.2079 179.41 44.1137 180.141 42.7982V46.7572L180.166 46.7583ZM215.85 46.7583H221.859V44.1272H218.855V30.4163C218.855 26.6972 216.994 24.5445 213.723 24.5445C212.023 24.5843 210.396 25.2464 209.15 26.4052C208.362 27.2109 207.691 28.1231 207.156 29.1152C206.598 26.1121 205.029 24.5179 202.158 24.5179C198.169 24.5179 196.308 27.6808 195.298 29.1152L195.165 24.9164H188.89V27.5476H192.027V44.1272H188.89V46.7583H198.169V44.1272H195.032V33.4194C195.032 31.4266 197.452 27.2556 200.748 27.2556C202.903 27.2556 203.886 28.398 203.886 31.1346V46.7583H210.162V44.1272H206.998V33.1541C206.998 31.5865 208.992 27.1224 212.714 27.1224C214.84 27.1224 215.852 28.5567 215.852 31.5587L215.85 46.7583ZM243.657 35.7586C243.657 41.0731 241.37 44.367 237.675 44.367C235.998 44.2203 234.437 43.4474 233.304 42.2022C232.17 40.9571 231.547 39.3308 231.559 37.6471L231.427 33.9269C231.427 30.765 234.564 27.3379 237.702 27.3379C241.238 27.3113 243.658 30.4731 243.658 35.7609M247.087 36.2116C247.087 29.9146 243.391 24.9187 238.525 24.9187C234.831 24.9187 232.385 28.0284 231.533 29.596V17.5825H225.551V20.2137H228.396V44.1272H225.391V46.7583H231.532V42.7982C232.807 44.5257 234.67 47.1291 238.524 47.1291C243.097 47.1291 247.086 42.0799 247.086 36.2081M248.762 46.7514H257.987V44.1272H255.115V17.5825H248.921V20.0271H251.952V44.126H248.788V46.7572L248.762 46.7514ZM264.024 34.1563C264.099 33.4358 264.241 32.7241 264.449 32.0302C264.805 30.7669 265.548 29.6469 266.574 28.8272C267.599 28.0075 268.855 27.5293 270.166 27.4596C270.819 27.4244 271.472 27.519 272.089 27.7377C272.705 27.9564 273.272 28.295 273.757 28.734C275.142 30.1993 275.912 32.1392 275.911 34.1551L264.024 34.1563ZM263.892 36.5743H279.499C279.499 29.0283 275.218 24.884 269.9 24.884C264.609 24.884 260.462 29.72 260.462 35.9903C260.462 42.5526 264.61 47.0966 270.485 47.0966C271.788 47.1073 273.078 46.832 274.263 46.2904C275.449 45.7487 276.501 44.9537 277.345 43.9615C278.185 43.0333 278.779 41.9097 279.073 40.6931L275.51 40.8251C274.367 43.403 272.798 44.5188 270.352 44.5188C268.868 44.5014 267.441 43.9441 266.338 42.9512C264.902 41.569 264.184 39.7071 263.892 36.5789M299.521 36.2603H292.075L295.797 23.6118L299.521 36.2603ZM302.817 46.756H309.251V42.2375H307.096L299.252 18.324H292.392L284.656 42.2375H282.502V46.756H289.096L290.958 40.5923H300.98L302.817 46.756ZM338.896 29.0596H340.758V24.9164H332.174V29.0619H334.329L331.455 41.8158L327.887 24.9164H322.305L318.713 42.1077L315.736 29.0619H317.863V24.9164H309.273V29.0619H311.135L315.841 46.7583H321.558L324.987 31.6131L328.579 46.7583H334.296L338.896 29.0596ZM356.073 38.7316C356.002 39.9718 355.458 41.1375 354.552 41.9881C353.647 42.8386 352.449 43.309 351.207 43.3022C349.052 43.3022 347.616 42.1599 347.616 40.459C347.616 37.4559 350.914 37.0307 355.912 36.6055H356.046V38.7339L356.073 38.7316ZM356.231 46.756H362.959V42.5851H361.098L361.231 32.4612C361.231 27.6252 358.067 24.9153 352.058 24.9153C346.9 24.9153 343.47 27.6252 343.177 31.9039L348.335 32.036V31.9039C348.468 29.9111 349.479 28.6355 352.191 28.6355C354.903 28.6355 356.047 29.6447 356.047 32.9131C349.158 33.4704 342.007 34.1875 342.007 40.459C342.007 44.3114 345.305 47.1546 349.609 47.1546C350.862 47.1877 352.106 46.9371 353.248 46.4217C354.39 45.9063 355.4 45.1393 356.204 44.1781V46.756H356.231ZM378.485 29.618C379.342 29.6365 380.195 29.7342 381.034 29.91V24.8353C380.237 24.6723 379.427 24.5747 378.614 24.5434C376.194 24.5434 374.626 25.7124 373.216 28.4756V24.9164H365.957V29.194H368.09V42.5862H365.963V46.7572H375.907V42.5862H373.358V34.1366C373.443 32.8582 374.03 31.6652 374.992 30.8185C375.953 29.9718 377.211 29.5402 378.49 29.618M387.796 33.1251C387.998 31.9855 388.588 30.9506 389.465 30.1953C390.342 29.44 391.453 29.0106 392.61 28.9796H392.743C393.873 28.9882 394.953 29.4423 395.75 30.2433C396.547 31.0443 396.995 32.1275 396.997 33.2572L387.796 33.1251ZM387.638 36.9786H402.953C403.034 34.1642 402.296 31.3868 400.828 28.9843C399.939 27.6103 398.717 26.4831 397.276 25.7076C395.835 24.932 394.221 24.5331 392.584 24.548C386.629 24.548 382.216 29.2774 382.216 35.8409C382.216 42.4043 386.601 47.1337 392.584 47.1337C397.689 47.1337 401.517 44.265 402.501 39.5611L397.103 39.6932C396.822 40.6282 396.239 41.4436 395.445 42.0111C394.651 42.5787 393.691 42.8661 392.715 42.8284C391.759 42.855 388.222 42.5619 387.638 36.9821" fill="#EFEFEF"/>
</svg>
    