<svg width="300" height="68" viewBox="0 0 300 68" fill="none" xmlns="http://www.w3.org/2000/svg">
<path d="M88.5441 25.7612C88.5936 25.865 88.6196 25.9783 88.6203 26.0932C88.6211 26.2081 88.5965 26.3218 88.5484 26.4262C88.5003 26.5305 88.4298 26.623 88.3419 26.6971C88.254 26.7711 88.1509 26.8249 88.0399 26.8547L83.5441 28.1975C82.9899 28.3656 82.7037 28.1975 82.5356 27.6434C82.2775 26.5537 81.6322 25.595 80.7199 24.9456C79.8076 24.2963 78.6904 24.0006 77.5763 24.1136C73.328 24.1136 71.9038 26.5924 71.9038 29.9559V37.6877C71.9038 41.0475 73.3317 43.5282 77.5763 43.5282C81.0635 43.5282 82.9124 41.888 82.9124 38.3564V37.3479H78.2504C78.1621 37.3553 78.0733 37.3426 77.9906 37.3107C77.9079 37.2789 77.8334 37.2288 77.7728 37.1641C77.7122 37.0994 77.667 37.0219 77.6406 36.9373C77.6143 36.8527 77.6074 36.7632 77.6206 36.6755V32.3903C77.6112 32.3034 77.6207 32.2154 77.6484 32.1325C77.6761 32.0495 77.7214 31.9735 77.7812 31.9097C77.841 31.8459 77.9139 31.7957 77.9949 31.7626C78.0758 31.7295 78.163 31.7143 78.2504 31.718H88.4093C88.4969 31.7049 88.5865 31.7118 88.6711 31.7381C88.7557 31.7645 88.8332 31.8097 88.8979 31.8702C88.9626 31.9308 89.0126 32.0053 89.0444 32.088C89.0763 32.1707 89.089 32.2595 89.0816 32.3479V38.8126C89.0816 44.9079 84.5858 49.5256 77.6113 49.5256C69.3346 49.5256 65.4688 44.6087 65.4688 37.8891V29.749C65.4688 23.0257 69.3346 18.1125 77.6113 18.1125C80.0355 17.9276 82.4487 18.5885 84.4404 19.9827C86.4321 21.3769 87.879 23.4183 88.5349 25.7594M111.307 33.4062V48.4063C111.312 48.4903 111.3 48.5745 111.27 48.6532C111.24 48.732 111.194 48.8035 111.134 48.863C111.075 48.9226 111.003 48.9688 110.924 48.9986C110.846 49.0284 110.762 49.0412 110.677 49.0361H106.097C106.01 49.0455 105.922 49.036 105.839 49.0083C105.756 48.9805 105.68 48.9352 105.616 48.8754C105.552 48.8156 105.502 48.7427 105.469 48.6618C105.436 48.5808 105.421 48.4936 105.424 48.4063V45.9681C104.773 47.0551 103.849 47.9529 102.743 48.5721C101.638 49.1913 100.389 49.5105 99.1223 49.4979C98.1754 49.5678 97.2246 49.4335 96.3341 49.104C95.4436 48.7745 94.6343 48.2576 93.9609 47.5883C93.2875 46.9189 92.7657 46.1127 92.4309 45.2242C92.0961 44.3357 91.9561 43.3857 92.0203 42.4384C92.0203 38.2788 94.6265 35.8 101.054 35.3364C102.438 35.218 103.828 35.2038 105.214 35.2939V33.6149C105.275 33.1887 105.235 32.7541 105.097 32.3461C104.96 31.9381 104.729 31.568 104.422 31.2655C104.116 30.9631 103.743 30.7367 103.333 30.6045C102.923 30.4723 102.488 30.4381 102.063 30.5045C101.373 30.4172 100.675 30.5815 100.096 30.9672C99.5171 31.3529 99.0967 31.9342 98.9117 32.6046C98.7011 33.1088 98.5423 33.192 98.0713 33.0682L93.4924 31.8916C93.0288 31.7642 92.9881 31.5222 93.0713 31.1768C93.703 27.9001 96.8116 25.462 102.307 25.462C108.064 25.5045 111.298 28.2326 111.298 33.4044M105.164 41.2618V39.1192C103.944 39.0754 102.723 39.1179 101.509 39.2467C99.198 39.5403 97.9383 40.2551 97.9383 42.0173C97.9383 43.6556 99.03 44.496 100.794 44.496C101.778 44.5186 102.742 44.2127 103.533 43.6268C104.325 43.0408 104.898 42.2081 105.164 41.26M127.811 25.5045C129.086 25.4823 130.334 25.8763 131.365 26.6269C132.396 27.3775 133.155 28.4437 133.526 29.6641C134.192 28.4587 135.155 27.4438 136.324 26.7158C137.493 25.9877 138.829 25.5708 140.205 25.5045C144.239 25.5045 146.507 28.6962 146.507 33.4875V48.4026C146.5 48.4942 146.476 48.5836 146.434 48.6654C146.392 48.7472 146.334 48.8197 146.264 48.8785C146.193 48.9374 146.111 48.9813 146.023 49.0078C145.935 49.0342 145.843 49.0426 145.751 49.0324H140.962C140.871 49.0429 140.778 49.0347 140.69 49.0084C140.602 48.982 140.52 48.9381 140.449 48.8793C140.378 48.8204 140.32 48.7478 140.278 48.6659C140.236 48.584 140.211 48.4944 140.205 48.4026V34.581C140.205 32.5215 139.281 31.2562 137.684 31.2562C135.96 31.2562 134.743 32.6859 134.113 34.8285V48.3989C134.119 48.4796 134.109 48.5607 134.082 48.637C134.055 48.7134 134.013 48.7834 133.957 48.8425C133.902 48.9017 133.835 48.9488 133.761 48.9809C133.687 49.0129 133.607 49.0292 133.526 49.0287H128.354C127.985 49.0287 127.8 48.7775 127.8 48.3989V34.581C127.8 32.5215 126.876 31.2562 125.279 31.2562C123.515 31.2562 122.296 32.769 121.708 34.871V48.4007C121.717 48.4857 121.707 48.5716 121.678 48.6521C121.649 48.7326 121.603 48.8057 121.542 48.8661C121.482 48.9264 121.409 48.9725 121.328 49.001C121.247 49.0294 121.161 49.0395 121.076 49.0306H116.023C115.938 49.0392 115.852 49.0289 115.772 49.0003C115.692 48.9717 115.619 48.9256 115.558 48.8653C115.498 48.805 115.452 48.732 115.423 48.6516C115.395 48.5713 115.384 48.4856 115.393 48.4007V26.5961C115.393 26.5152 115.409 26.435 115.441 26.3607C115.473 26.2864 115.52 26.2195 115.579 26.1643C115.638 26.1092 115.708 26.0668 115.785 26.04C115.861 26.0133 115.942 26.0026 116.023 26.0087H120.896C120.976 26.0023 121.058 26.0128 121.134 26.0395C121.211 26.0661 121.281 26.1084 121.34 26.1636C121.4 26.2188 121.447 26.2858 121.479 26.3602C121.511 26.4347 121.528 26.515 121.527 26.5961V29.2023C122.196 28.119 123.121 27.216 124.219 26.5721C125.318 25.9281 126.557 25.5629 127.829 25.5082M172.66 26.0106C172.787 26.5647 172.617 26.9766 172.105 27.104L167.693 28.4062C167.591 28.4532 167.48 28.4757 167.368 28.4718C167.256 28.4679 167.147 28.4378 167.049 28.3839C166.95 28.33 166.866 28.2537 166.803 28.1614C166.74 28.069 166.699 27.9631 166.684 27.8521C166.496 26.7438 165.9 25.7458 165.014 25.0538C164.128 24.3619 163.016 24.0259 161.895 24.1118C158.114 24.1118 156.897 26.5906 156.897 29.9541V37.6859C156.897 41.0457 158.284 43.5263 161.895 43.5263C163.1 43.626 164.297 43.2517 165.231 42.4828C166.164 41.714 166.761 40.6113 166.895 39.4092C166.903 39.2951 166.94 39.1848 167.001 39.0885C167.063 38.9922 167.148 38.9129 167.248 38.8578C167.349 38.8027 167.461 38.7736 167.575 38.7731C167.69 38.7726 167.803 38.8008 167.903 38.8551L172.316 40.2829C172.428 40.3116 172.534 40.364 172.624 40.4366C172.715 40.5092 172.789 40.6004 172.841 40.7039C172.894 40.8074 172.923 40.921 172.928 41.037C172.933 41.1529 172.913 41.2686 172.87 41.3763C171.821 45.8721 168.585 49.5274 161.862 49.5274C154.3 49.5274 150.474 44.6105 150.474 37.8909V29.749C150.474 23.0257 154.383 18.1125 161.862 18.1125C168.417 18.1125 171.525 21.5979 172.66 26.0106ZM194.802 33.4007V48.4007C194.807 48.4849 194.794 48.5691 194.764 48.6478C194.734 48.7265 194.688 48.798 194.628 48.8575C194.568 48.917 194.497 48.9632 194.418 48.9931C194.339 49.0229 194.255 49.0357 194.17 49.0306H189.592C189.505 49.04 189.417 49.0305 189.334 49.0027C189.251 48.975 189.175 48.9297 189.111 48.8699C189.047 48.8101 188.997 48.7372 188.964 48.6562C188.931 48.5753 188.916 48.4881 188.919 48.4007V45.9626C188.268 47.0496 187.344 47.9473 186.238 48.5665C185.133 49.1857 183.884 49.5049 182.617 49.4923C181.67 49.5622 180.719 49.4279 179.829 49.0984C178.938 48.769 178.129 48.2521 177.456 47.5827C176.782 46.9134 176.26 46.1072 175.926 45.2187C175.591 44.3302 175.451 43.3801 175.515 42.4328C175.515 38.2732 178.119 35.7945 184.549 35.3309C185.933 35.2125 187.323 35.1983 188.709 35.2884V33.6094C188.77 33.1832 188.73 32.7486 188.592 32.3406C188.455 31.9326 188.224 31.5625 187.917 31.26C187.611 30.9575 187.238 30.7311 186.828 30.599C186.418 30.4668 185.983 30.4325 185.558 30.4989C184.868 30.4119 184.171 30.5758 183.592 30.9607C183.013 31.3457 182.593 31.9259 182.407 32.5954C182.196 33.0996 182.037 33.1827 181.566 33.059L176.985 31.8824C176.524 31.7549 176.483 31.513 176.566 31.1676C177.196 27.8909 180.306 25.4528 185.801 25.4528C191.559 25.4952 194.793 28.2234 194.793 33.3951M188.659 41.2526V39.11C187.439 39.0661 186.217 39.1087 185.004 39.2374C182.693 39.5311 181.431 40.2459 181.431 42.008C181.431 43.6464 182.525 44.4868 184.289 44.4868C185.273 44.5093 186.237 44.2035 187.028 43.6175C187.82 43.0316 188.393 42.2007 188.659 41.2526ZM212.565 26.4188V30.8721C212.565 31.4262 212.355 31.6293 211.81 31.6293H211.138C207.813 31.6293 205.844 33.1421 205.212 35.6209V48.4358C205.219 48.5133 205.211 48.5915 205.187 48.6656C205.163 48.7397 205.125 48.8083 205.074 48.8673C205.023 48.9262 204.961 48.9743 204.891 49.0087C204.821 49.0431 204.745 49.0631 204.667 49.0675H199.414C199.337 49.0631 199.261 49.0431 199.191 49.0087C199.121 48.9743 199.059 48.9262 199.008 48.8673C198.957 48.8083 198.919 48.7397 198.895 48.6656C198.871 48.5915 198.862 48.5133 198.869 48.4358V26.6386C198.865 26.5567 198.879 26.4748 198.91 26.3988C198.941 26.3228 198.988 26.2545 199.048 26.1985C199.108 26.1426 199.179 26.1004 199.257 26.075C199.335 26.0495 199.418 26.0414 199.499 26.0512H204.257C204.76 26.0512 204.887 26.3874 204.887 26.7235V29.7915C205.5 28.5521 206.454 27.5138 207.638 26.7991C208.821 26.0843 210.184 25.7229 211.566 25.7575C212.407 25.715 212.577 25.8406 212.577 26.4299M220.768 39.4147V40.2958C220.71 40.8581 220.78 41.4263 220.972 41.958C221.164 42.4897 221.473 42.9712 221.877 43.3668C222.281 43.7625 222.769 44.062 223.304 44.2431C223.84 44.4242 224.409 44.4822 224.97 44.4129C225.871 44.5431 226.789 44.3756 227.585 43.9358C228.381 43.4959 229.012 42.808 229.381 41.9766C229.751 41.3468 229.935 41.2618 230.6 41.5573L233.877 43.2363C234.549 43.5725 234.59 43.9086 234.296 44.5385C232.867 47.7321 229.339 49.581 224.926 49.581C218.288 49.581 214.8 45.632 214.8 40.2127V34.8728C214.8 29.6216 218.077 25.5045 224.884 25.5045C231.348 25.5045 234.547 29.6216 234.547 34.7398V38.3952C234.547 39.0269 234.337 39.4461 233.456 39.4461H220.766L220.768 39.4147ZM220.768 34.5828V35.3807H228.792V34.5828C228.792 33.5188 228.369 32.4984 227.617 31.746C226.865 30.9937 225.844 30.571 224.78 30.571C223.716 30.571 222.696 30.9937 221.943 31.746C221.191 32.4984 220.768 33.5188 220.768 34.5828ZM72.0794 58.3638C72.0897 58.3885 72.0946 58.4152 72.0937 58.442C72.0927 58.4687 72.086 58.495 72.0738 58.5189C72.0617 58.5428 72.0445 58.5638 72.0234 58.5804C72.0024 58.597 71.9779 58.6088 71.9519 58.615L70.9434 58.9087C70.9189 58.9191 70.8923 58.924 70.8656 58.9232C70.839 58.9223 70.8128 58.9157 70.7889 58.9038C70.765 58.8918 70.744 58.8749 70.7273 58.854C70.7106 58.8332 70.6987 58.809 70.6923 58.7831C70.6086 58.4325 70.4005 58.1243 70.1066 57.9157C69.8127 57.707 69.453 57.6123 69.0945 57.649C68.8466 57.6197 68.5954 57.6477 68.3601 57.7308C68.1248 57.8139 67.9116 57.9499 67.7371 58.1283C67.5626 58.3067 67.4313 58.5228 67.3535 58.76C67.2756 58.9971 67.2533 59.2489 67.2881 59.496V61.9342C67.2502 62.1819 67.2704 62.435 67.3472 62.6735C67.4239 62.9121 67.555 63.1295 67.7302 63.3086C67.9054 63.4878 68.1198 63.6237 68.3566 63.7058C68.5934 63.7878 68.846 63.8136 69.0945 63.7812C70.1879 63.7812 70.7753 63.277 70.7753 62.1835V61.5943H69.2977C69.2751 61.5966 69.2522 61.5939 69.2308 61.5862C69.2093 61.5786 69.1898 61.5663 69.1737 61.5502C69.1576 61.5341 69.1453 61.5146 69.1376 61.4932C69.13 61.4717 69.1273 61.4489 69.1296 61.4262V60.4602C69.1296 60.3346 69.1721 60.294 69.2977 60.294H72.0276C72.1532 60.294 72.2382 60.3365 72.2382 60.4602V62.3073C72.24 62.7104 72.1577 63.1096 71.9965 63.4791C71.8353 63.8486 71.5988 64.1805 71.3021 64.4534C71.0053 64.7263 70.6548 64.9343 70.2731 65.0641C69.8914 65.1939 69.4869 65.2426 69.0853 65.2072C68.6473 65.2604 68.2028 65.2155 67.7842 65.0758C67.3657 64.936 66.9835 64.7049 66.6652 64.3992C66.347 64.0936 66.1006 63.7209 65.9442 63.3083C65.7877 62.8957 65.725 62.4534 65.7605 62.0136V59.4092C65.725 58.9694 65.7877 58.5271 65.9442 58.1145C66.1006 57.7019 66.347 57.3293 66.6652 57.0236C66.9835 56.7179 67.3657 56.4868 67.7842 56.3471C68.2028 56.2073 68.6473 56.1625 69.0853 56.2157C69.7489 56.1974 70.4001 56.3973 70.9393 56.7846C71.4784 57.172 71.8756 57.7254 72.0701 58.3601M78.7935 60.5858V64.956C78.7935 65.0816 78.751 65.1222 78.6254 65.1222H77.5743C77.4487 65.1222 77.4063 65.0797 77.4063 64.956V64.1987C77.2146 64.5272 76.938 64.798 76.6055 64.9826C76.273 65.1672 75.897 65.2588 75.5168 65.2478C75.2507 65.2667 74.9836 65.2289 74.7332 65.1369C74.4828 65.045 74.2547 64.9009 74.0641 64.7143C73.8735 64.5277 73.7246 64.3027 73.6273 64.0543C73.5301 63.8059 73.4865 63.5397 73.4997 63.2733C73.4997 62.0967 74.2977 61.3819 75.9786 61.2988C76.4258 61.2571 76.8759 61.2571 77.3232 61.2988V60.7114C77.3377 60.5661 77.3192 60.4193 77.2687 60.2822C77.2183 60.1451 77.1373 60.0213 77.032 59.9201C76.9267 59.8189 76.7997 59.7429 76.6607 59.6979C76.5218 59.6529 76.3744 59.6401 76.2297 59.6604C75.9916 59.6237 75.7483 59.6764 75.5468 59.8084C75.3452 59.9404 75.1996 60.1423 75.1381 60.3753C75.0956 60.5027 75.0531 60.5433 74.9275 60.5027L73.8766 60.2496C73.751 60.2072 73.7509 60.1665 73.7509 60.0391C73.9615 59.1156 74.8001 58.4839 76.2722 58.4839C77.8718 58.4451 78.7972 59.1599 78.7972 60.5877L78.7935 60.5858ZM77.3639 62.987V62.1891C76.9577 62.1817 76.5514 62.1958 76.1467 62.2316C75.3894 62.3147 74.9293 62.5659 74.9293 63.1976C74.9293 63.7517 75.2988 64.0786 75.9379 64.0786C76.2576 64.059 76.5642 63.9445 76.8186 63.7497C77.0729 63.5549 77.2634 63.2887 77.3657 62.9852M83.6678 58.4488C84.0287 58.431 84.3846 58.5385 84.6754 58.7528C84.9661 58.9672 85.174 59.2754 85.2637 59.6253C85.4502 59.2823 85.7225 58.9935 86.054 58.7872C86.3856 58.581 86.765 58.4644 87.1551 58.4488C88.2892 58.4488 88.9191 59.2892 88.9191 60.5914V64.9615C88.9191 65.0871 88.8359 65.1296 88.7085 65.1296H87.6151C87.4895 65.1296 87.4045 65.0871 87.4045 64.9615V60.8813C87.4045 60.209 87.1108 59.7879 86.564 59.7879C86.0173 59.7879 85.598 60.2072 85.3468 60.8813V64.956C85.3468 65.0816 85.3043 65.1241 85.1787 65.1241H84.0133C83.8877 65.1241 83.8452 65.0816 83.8452 64.956V60.8813C83.8452 60.209 83.5496 59.7879 83.0047 59.7879C82.4174 59.7879 81.9962 60.2921 81.7875 60.922V64.956C81.7875 65.0816 81.745 65.1241 81.6194 65.1241H80.4854C80.3598 65.1241 80.3173 65.0816 80.3173 64.956V58.7387C80.3153 58.7162 80.3182 58.6936 80.326 58.6724C80.3338 58.6512 80.3461 58.6319 80.3622 58.616C80.3783 58.6002 80.3976 58.588 80.4189 58.5805C80.4402 58.573 80.4629 58.5702 80.4854 58.5725H81.5788C81.6013 58.5702 81.6239 58.573 81.6452 58.5805C81.6665 58.588 81.686 58.6002 81.7021 58.616C81.7181 58.6319 81.7305 58.6512 81.7383 58.6724C81.746 58.6936 81.7489 58.7162 81.7469 58.7387V59.5385C81.965 59.2238 82.2509 58.9622 82.5838 58.7729C82.9166 58.5836 83.2878 58.4716 83.6698 58.4451L83.6678 58.4488ZM92.1145 56.2212V59.4148C92.3084 59.1039 92.582 58.8504 92.9067 58.6806C93.2314 58.5107 93.5955 58.4307 93.9615 58.4488C94.2783 58.453 94.5908 58.5235 94.8788 58.6557C95.1667 58.7878 95.4238 58.9788 95.6335 59.2162C95.8433 59.4536 96.0011 59.7323 96.0968 60.0344C96.1924 60.3364 96.2239 60.6551 96.1891 60.97V62.734C96.2264 63.0528 96.1953 63.3759 96.0979 63.6818C96.0005 63.9877 95.8391 64.2693 95.6243 64.5079C95.4095 64.7465 95.1463 64.9365 94.8523 65.0654C94.5582 65.1942 94.24 65.2589 93.919 65.2552C93.5539 65.2676 93.1918 65.1851 92.8681 65.0158C92.5444 64.8465 92.2701 64.5961 92.072 64.2892V64.9615C92.0739 64.9841 92.071 65.0068 92.0633 65.0281C92.0555 65.0494 92.0432 65.0687 92.0272 65.0847C92.0112 65.1008 91.9918 65.1131 91.9705 65.1208C91.9492 65.1286 91.9265 65.1316 91.9039 65.1296H90.8124C90.6849 65.1296 90.6443 65.0871 90.6443 64.9615V56.2175C90.6423 56.195 90.6452 56.1723 90.653 56.1511C90.6607 56.1299 90.6731 56.1107 90.6892 56.0948C90.7052 56.0789 90.7246 56.0668 90.7459 56.0592C90.7672 56.0517 90.7899 56.049 90.8124 56.0513H91.9889C92.0245 56.0628 92.0558 56.0849 92.0785 56.1146C92.1013 56.1443 92.1145 56.1801 92.1164 56.2175L92.1145 56.2212ZM92.1145 61.1787V62.5178C92.0949 62.7031 92.1156 62.8903 92.175 63.0668C92.2345 63.2433 92.3313 63.4049 92.459 63.5405C92.5867 63.6761 92.7422 63.7825 92.9148 63.8524C93.0874 63.9223 93.2731 63.9541 93.4592 63.9456C94.2996 63.9456 94.7189 63.4432 94.7189 62.5178V61.1732C94.7189 60.2496 94.2996 59.6955 93.4592 59.6955C93.2717 59.6974 93.0866 59.738 92.9155 59.8146C92.7443 59.8913 92.5908 60.0025 92.4646 60.1412C92.3384 60.2798 92.2421 60.4431 92.1819 60.6207C92.1216 60.7982 92.0987 60.9863 92.1145 61.1732M99.1721 56.2157V64.919C99.1721 65.0465 99.1297 65.0871 99.0041 65.0871H97.8663C97.7407 65.0871 97.6982 65.0446 97.6982 64.919V56.2175C97.6982 56.0919 97.7407 56.0513 97.8663 56.0513H99.0004C99.1278 56.0513 99.1685 56.0938 99.1685 56.2175M102.32 56.26V57.3941C102.321 57.4222 102.317 57.4505 102.307 57.4769C102.297 57.5033 102.282 57.5273 102.262 57.5472C102.242 57.5672 102.218 57.5826 102.192 57.5925C102.165 57.6024 102.137 57.6066 102.109 57.6046H101.06C100.892 57.6046 100.849 57.5197 100.849 57.3941V56.26C100.847 56.2318 100.852 56.2036 100.861 56.1772C100.871 56.1508 100.887 56.1268 100.907 56.1069C100.927 56.0869 100.951 56.0715 100.977 56.0616C101.004 56.0516 101.032 56.0475 101.06 56.0494H102.109C102.137 56.0475 102.165 56.0516 102.192 56.0616C102.218 56.0715 102.242 56.0869 102.262 56.1069C102.282 56.1268 102.297 56.1508 102.307 56.1772C102.317 56.2036 102.321 56.2318 102.32 56.26ZM102.32 58.7369V64.956C102.32 65.0816 102.279 65.1241 102.153 65.1241H101.019C100.892 65.1241 100.851 65.0816 100.851 64.956V58.7387C100.851 58.6131 100.894 58.5725 101.019 58.5725H102.153C102.176 58.5696 102.199 58.5719 102.221 58.5792C102.243 58.5865 102.263 58.5985 102.279 58.6145C102.296 58.6304 102.308 58.6499 102.316 58.6714C102.324 58.6929 102.327 58.7159 102.325 58.7387L102.32 58.7369ZM105.428 60.8813V64.919C105.428 65.0465 105.386 65.0871 105.262 65.0871H104.128C104.002 65.0871 103.96 65.0446 103.96 64.919V58.6963C103.958 58.6737 103.961 58.651 103.969 58.6297C103.976 58.6084 103.989 58.5891 104.005 58.573C104.021 58.557 104.04 58.5447 104.061 58.5369C104.083 58.5292 104.105 58.5262 104.128 58.5282H105.219C105.242 58.5259 105.265 58.5286 105.286 58.5363C105.308 58.5439 105.327 58.5562 105.343 58.5723C105.359 58.5884 105.372 58.6079 105.379 58.6293C105.387 58.6508 105.39 58.6736 105.388 58.6963V59.4942C105.6 59.1628 105.892 58.8896 106.237 58.699C106.582 58.5084 106.968 58.4066 107.362 58.4026C108.624 58.4026 109.294 59.2836 109.294 60.6283V64.919C109.294 65.0465 109.252 65.0871 109.128 65.0871H107.994C107.866 65.0871 107.826 65.0446 107.826 64.919V60.8813C107.826 60.1665 107.49 59.7472 106.817 59.7472C106.497 59.7691 106.191 59.89 105.943 60.0932C105.694 60.2964 105.513 60.5718 105.428 60.8813ZM116.396 65.5452C116.396 66.6368 115.556 67.6028 113.328 67.6028C111.311 67.6028 110.513 66.8899 110.513 65.8389C110.52 65.5376 110.621 65.2461 110.802 65.005C110.983 64.7639 111.234 64.5853 111.522 64.4942C111.387 64.3879 111.277 64.2545 111.197 64.1028C111.118 63.951 111.071 63.7842 111.06 63.6132C111.058 63.4023 111.121 63.196 111.242 63.0229C111.362 62.8498 111.534 62.7185 111.732 62.6471C111.411 62.4618 111.146 62.1913 110.968 61.8654C110.79 61.5395 110.706 61.1709 110.724 60.8001C110.724 59.4979 111.522 58.53 113.286 58.53H116.226C116.311 58.53 116.354 58.615 116.354 58.6981V59.5385C116.356 59.561 116.353 59.5837 116.345 59.6049C116.337 59.6261 116.325 59.6454 116.309 59.6612C116.293 59.6771 116.273 59.6893 116.252 59.6968C116.231 59.7043 116.208 59.707 116.186 59.7048H115.136C115.328 59.8708 115.481 60.0777 115.583 60.3104C115.684 60.5431 115.733 60.7957 115.724 61.0494C115.724 62.1835 114.926 63.0258 113.286 63.0258H112.866C112.497 63.0258 112.312 63.1939 112.312 63.3952C112.312 63.5965 112.48 63.7646 112.866 63.7646H114.211C115.77 63.7812 116.4 64.5367 116.4 65.5452H116.396ZM115.009 65.6708C115.009 65.3014 114.798 64.9135 114.043 64.9135H112.866C112.151 64.9135 111.9 65.2829 111.9 65.6708C111.9 66.2249 112.32 66.5537 113.456 66.5537C114.591 66.5537 115.009 66.2175 115.009 65.6708ZM112.028 60.7964C112.014 60.9578 112.037 61.1202 112.094 61.2719C112.151 61.4235 112.241 61.5606 112.357 61.6732C112.474 61.7858 112.614 61.8711 112.767 61.9229C112.921 61.9748 113.084 61.9919 113.245 61.973C113.557 61.973 113.856 61.849 114.077 61.6284C114.298 61.4077 114.422 61.1084 114.422 60.7964C114.422 60.4843 114.298 60.1851 114.077 59.9644C113.856 59.7438 113.557 59.6198 113.245 59.6198C113.086 59.6082 112.926 59.6305 112.775 59.6849C112.625 59.7394 112.488 59.825 112.373 59.936C112.258 60.0471 112.168 60.1811 112.109 60.3293C112.049 60.4776 112.022 60.6367 112.028 60.7964ZM126.396 58.1071C126.407 58.1319 126.412 58.1587 126.411 58.1857C126.41 58.2127 126.404 58.2392 126.391 58.2633C126.379 58.2875 126.362 58.3086 126.341 58.3254C126.32 58.3421 126.295 58.3539 126.269 58.3601L125.345 58.6944C125.321 58.7048 125.294 58.7098 125.267 58.7089C125.241 58.7081 125.214 58.7014 125.191 58.6895C125.167 58.6776 125.146 58.6606 125.129 58.6398C125.112 58.6189 125.1 58.5947 125.094 58.5688C124.998 58.2611 124.799 57.9963 124.529 57.8199C124.259 57.6436 123.936 57.5668 123.616 57.6028C122.776 57.6028 122.272 57.9722 122.272 58.6519C122.272 59.2393 122.641 59.5348 124.246 60.0797C125.842 60.6671 126.516 61.4244 126.516 62.6435C126.5 63.0119 126.409 63.3732 126.248 63.7049C126.087 64.0367 125.859 64.3318 125.579 64.572C125.3 64.8122 124.973 64.9923 124.621 65.1013C124.269 65.2102 123.898 65.2456 123.531 65.2053C122.868 65.2848 122.199 65.1194 121.65 64.7401C121.101 64.3608 120.709 63.7938 120.548 63.1459C120.538 63.1213 120.533 63.0947 120.534 63.068C120.535 63.0414 120.541 63.0152 120.553 62.9913C120.565 62.9674 120.582 62.9464 120.603 62.9297C120.624 62.9131 120.648 62.9011 120.674 62.8946L121.64 62.5585C121.808 62.516 121.85 62.5585 121.893 62.6859C121.969 63.0485 122.182 63.3681 122.486 63.579C122.791 63.7899 123.165 63.8762 123.531 63.82C124.414 63.82 125.009 63.4007 125.009 62.7266C125.009 62.0967 124.673 61.803 123.286 61.2988C121.477 60.6265 120.764 59.9116 120.764 58.6095C120.782 58.2584 120.872 57.9146 121.027 57.5993C121.183 57.284 121.401 57.0036 121.668 56.7754C121.936 56.5472 122.247 56.376 122.583 56.2721C122.919 56.1682 123.272 56.1339 123.622 56.1713C124.226 56.1766 124.815 56.3644 125.311 56.7102C125.806 57.056 126.186 57.5435 126.4 58.1089L126.396 58.1071ZM127.909 62.9815V58.6963C127.907 58.6737 127.91 58.651 127.918 58.6297C127.925 58.6084 127.938 58.5891 127.954 58.573C127.97 58.557 127.989 58.5447 128.01 58.5369C128.032 58.5292 128.054 58.5262 128.077 58.5282H129.209C129.337 58.5282 129.377 58.5707 129.377 58.6963V62.7303C129.377 63.4451 129.713 63.8644 130.388 63.8644C130.708 63.8421 131.013 63.7211 131.261 63.5179C131.509 63.3148 131.688 63.0395 131.773 62.7303V58.6963C131.773 58.5707 131.815 58.5282 131.941 58.5282H133.073C133.199 58.5282 133.241 58.5707 133.241 58.6963V64.919C133.244 64.9417 133.241 64.9645 133.233 64.986C133.226 65.0074 133.213 65.0269 133.197 65.043C133.181 65.0591 133.162 65.0714 133.14 65.079C133.119 65.0867 133.096 65.0894 133.073 65.0871H131.982C131.959 65.0894 131.936 65.0867 131.915 65.079C131.893 65.0714 131.874 65.0591 131.858 65.043C131.842 65.0269 131.829 65.0074 131.822 64.986C131.814 64.9645 131.811 64.9417 131.814 64.919V64.1211C131.597 64.4492 131.304 64.7201 130.961 64.9105C130.617 65.1009 130.232 65.2052 129.839 65.2146C128.577 65.2146 127.907 64.3317 127.907 62.987M135.05 67.4846C135.027 67.4866 135.004 67.4836 134.983 67.4758C134.962 67.4681 134.942 67.4558 134.926 67.4398C134.91 67.4237 134.898 67.4044 134.89 67.3831C134.882 67.3618 134.879 67.3391 134.881 67.3165V58.6963C134.879 58.6736 134.882 58.6508 134.89 58.6293C134.897 58.6079 134.91 58.5884 134.926 58.5723C134.942 58.5562 134.961 58.5439 134.983 58.5363C135.004 58.5286 135.027 58.5259 135.05 58.5282H136.141C136.164 58.5262 136.187 58.5292 136.208 58.5369C136.229 58.5447 136.248 58.557 136.264 58.573C136.28 58.5891 136.293 58.6084 136.3 58.6297C136.308 58.651 136.311 58.6737 136.309 58.6963V59.3778C136.507 59.0708 136.782 58.8203 137.105 58.651C137.429 58.4817 137.791 58.3992 138.156 58.4118C138.478 58.4044 138.798 58.4666 139.094 58.5942C139.39 58.7219 139.654 58.912 139.87 59.1514C140.085 59.3909 140.246 59.674 140.342 59.9815C140.438 60.2891 140.466 60.6136 140.425 60.9331V62.697C140.463 63.0124 140.434 63.3324 140.34 63.6358C140.246 63.9392 140.088 64.2192 139.878 64.4574C139.668 64.6956 139.409 64.8866 139.12 65.0177C138.83 65.1488 138.517 65.2172 138.199 65.2183C137.833 65.2357 137.469 65.1554 137.144 64.9857C136.82 64.8159 136.546 64.5627 136.352 64.2522V67.3202C136.354 67.3427 136.351 67.3654 136.344 67.3867C136.336 67.408 136.324 67.4274 136.308 67.4434C136.292 67.4595 136.273 67.4718 136.252 67.4796C136.231 67.4873 136.208 67.4903 136.185 67.4883L135.05 67.4846ZM138.999 62.4846V61.1399C138.999 60.2164 138.579 59.7103 137.739 59.7103C137.553 59.7036 137.368 59.7368 137.196 59.8074C137.024 59.8781 136.87 59.9847 136.742 60.1201C136.615 60.2554 136.518 60.4165 136.458 60.5924C136.398 60.7683 136.376 60.955 136.394 61.1399V62.4846C136.374 62.6723 136.395 62.862 136.453 63.0413C136.512 63.2207 136.608 63.3855 136.735 63.5251C136.862 63.6647 137.017 63.7758 137.19 63.8511C137.363 63.9265 137.55 63.9643 137.739 63.9623C138.579 63.9623 138.999 63.4081 138.999 62.4846ZM142.15 67.4846C142.127 67.4866 142.105 67.4837 142.083 67.4759C142.062 67.4681 142.043 67.4558 142.027 67.4397C142.011 67.4237 141.999 67.4043 141.991 67.383C141.984 67.3617 141.981 67.339 141.983 67.3165V58.6963C141.981 58.6738 141.984 58.6511 141.991 58.6298C141.999 58.6085 142.011 58.5891 142.027 58.5731C142.043 58.557 142.062 58.5447 142.083 58.5369C142.105 58.5291 142.127 58.5262 142.15 58.5282H143.243C143.266 58.5262 143.288 58.5292 143.31 58.5369C143.331 58.5447 143.35 58.557 143.366 58.573C143.382 58.5891 143.395 58.6084 143.402 58.6297C143.41 58.651 143.413 58.6737 143.411 58.6963V59.3778C143.609 59.0708 143.883 58.8203 144.207 58.651C144.531 58.4817 144.893 58.3992 145.258 58.4118C145.581 58.4041 145.9 58.4661 146.196 58.5937C146.492 58.7212 146.757 58.9112 146.973 59.1507C147.188 59.3902 147.35 59.6734 147.446 59.9811C147.542 60.2887 147.57 60.6135 147.528 60.9331V62.697C147.567 63.0124 147.538 63.3324 147.444 63.6358C147.349 63.9392 147.192 64.2192 146.982 64.4574C146.771 64.6956 146.513 64.8866 146.224 65.0177C145.934 65.1488 145.62 65.2172 145.303 65.2183C144.937 65.2359 144.573 65.1557 144.248 64.9859C143.923 64.8161 143.65 64.5629 143.456 64.2522V67.3202C143.458 67.3429 143.455 67.3657 143.447 67.3872C143.44 67.4086 143.428 67.4281 143.412 67.4442C143.395 67.4603 143.376 67.4726 143.354 67.4802C143.333 67.4879 143.31 67.4906 143.287 67.4883L142.15 67.4846ZM146.101 62.4846V61.1399C146.101 60.2164 145.681 59.7103 144.839 59.7103C144.653 59.7036 144.468 59.7368 144.296 59.8074C144.124 59.8781 143.97 59.9847 143.842 60.1201C143.715 60.2554 143.618 60.4165 143.558 60.5924C143.498 60.7683 143.476 60.955 143.494 61.1399V62.4846C143.475 62.6723 143.495 62.862 143.553 63.0413C143.612 63.2207 143.708 63.3855 143.835 63.5251C143.962 63.6647 144.117 63.7758 144.29 63.8511C144.463 63.9265 144.65 63.9643 144.839 63.9623C145.637 63.9623 146.101 63.4081 146.101 62.4846ZM154.46 61.055V62.6102C154.466 63.345 154.18 64.052 153.664 64.5755C153.148 65.0991 152.446 65.3964 151.711 65.402C150.976 65.4077 150.269 65.1212 149.746 64.6056C149.222 64.09 148.925 63.3875 148.919 62.6527V61.0975C148.914 60.3626 149.2 59.6557 149.716 59.1321C150.231 58.6086 150.934 58.3112 151.669 58.3056C152.403 58.3 153.11 58.5865 153.634 59.1021C154.157 59.6177 154.455 60.3202 154.46 61.055ZM150.386 61.1399V62.5677C150.386 63.4506 150.805 63.9549 151.688 63.9549C152.571 63.9549 152.981 63.4525 152.981 62.5677V61.1399C152.981 60.257 152.562 59.7103 151.688 59.7103C150.814 59.7103 150.386 60.2644 150.386 61.1399ZM159.588 58.6612V59.7103C159.588 59.8378 159.545 59.8784 159.375 59.8784H159.209C158.821 59.8527 158.435 59.9591 158.114 60.1804C157.793 60.4017 157.557 60.7249 157.443 61.0975V64.9634C157.443 65.089 157.36 65.1315 157.318 65.1315H156.141C156.119 65.1334 156.096 65.1304 156.075 65.1227C156.053 65.1149 156.034 65.1026 156.018 65.0866C156.002 65.0706 155.99 65.0512 155.982 65.03C155.974 65.0087 155.971 64.9859 155.973 64.9634V58.7387C155.971 58.7162 155.974 58.6936 155.982 58.6724C155.99 58.6512 156.002 58.6319 156.018 58.616C156.034 58.6002 156.054 58.588 156.075 58.5805C156.096 58.573 156.119 58.5702 156.141 58.5725H157.233C157.255 58.5702 157.278 58.573 157.299 58.5805C157.321 58.588 157.34 58.6002 157.356 58.616C157.372 58.6319 157.384 58.6512 157.392 58.6724C157.4 58.6936 157.403 58.7162 157.401 58.7387V59.6623C157.591 59.3044 157.876 59.0055 158.224 58.7981C158.572 58.5906 158.97 58.4826 159.375 58.4857C159.558 58.4857 159.593 58.4857 159.593 58.6538L159.588 58.6612ZM162.948 57.1059V58.6187H164.25C164.273 58.6164 164.295 58.6191 164.317 58.6268C164.338 58.6344 164.358 58.6467 164.374 58.6628C164.39 58.6789 164.402 58.6984 164.41 58.7198C164.417 58.7413 164.42 58.7641 164.418 58.7868V59.6272C164.418 59.7546 164.375 59.7953 164.25 59.7953H162.948V63.072C162.948 63.5337 163.199 63.7868 163.746 63.7868H164.25C164.375 63.7868 164.418 63.8293 164.418 63.953V64.919C164.418 65.0465 164.375 65.0871 164.25 65.0871H163.535C162.19 65.0871 161.561 64.3741 161.561 63.2807V59.7897H160.763C160.637 59.7897 160.595 59.7472 160.595 59.6216V58.7812C160.595 58.6538 160.637 58.6132 160.763 58.6132H161.603V57.1004C161.601 57.0778 161.603 57.0549 161.611 57.0334C161.619 57.012 161.631 56.9925 161.647 56.9764C161.663 56.9603 161.683 56.948 161.704 56.9404C161.726 56.9328 161.748 56.93 161.771 56.9323H162.863C162.905 56.9323 162.948 57.0173 162.948 57.1004M174.627 58.1495C174.669 58.277 174.627 58.3601 174.459 58.4026L173.326 58.8219C173.199 58.8643 173.116 58.8219 173.031 58.6944C172.931 58.4374 172.749 58.2201 172.514 58.076C172.279 57.9319 172.003 57.8688 171.729 57.8965C171.016 57.8965 170.552 58.2327 170.552 58.7369C170.552 59.2411 170.888 59.4517 172.484 59.9985C174.039 60.5526 174.712 61.3006 174.712 62.5603C174.692 62.9461 174.593 63.3237 174.421 63.6695C174.249 64.0153 174.007 64.322 173.712 64.5704C173.416 64.8187 173.072 65.0034 172.701 65.113C172.331 65.2226 171.942 65.2546 171.559 65.2072C170.875 65.2852 170.186 65.1164 169.616 64.7313C169.046 64.3463 168.633 63.7702 168.45 63.1071C168.44 63.0825 168.435 63.0559 168.436 63.0293C168.436 63.0026 168.443 62.9764 168.455 62.9525C168.467 62.9286 168.484 62.9076 168.505 62.891C168.526 62.8743 168.55 62.8623 168.576 62.8559L169.793 62.4366C169.961 62.3941 170.046 62.4366 170.088 62.6028C170.257 63.2751 170.718 63.5688 171.566 63.5688C172.322 63.5688 172.828 63.2345 172.828 62.6878C172.828 62.1835 172.491 61.973 171.232 61.5112C169.385 60.8389 168.668 60.1241 168.668 58.7406C168.696 58.378 168.795 58.0245 168.961 57.7008C169.126 57.377 169.355 57.0895 169.632 56.8548C169.91 56.6202 170.232 56.4431 170.579 56.334C170.926 56.2249 171.291 56.186 171.653 56.2193C172.292 56.1743 172.929 56.3383 173.467 56.6869C174.005 57.0354 174.416 57.5494 174.636 58.1514M178.376 57.1429V58.5725H179.593C179.719 58.5725 179.804 58.615 179.804 58.7831V59.8322C179.806 59.8604 179.802 59.8886 179.792 59.915C179.782 59.9414 179.767 59.9654 179.747 59.9853C179.727 60.0053 179.703 60.0207 179.676 60.0306C179.65 60.0406 179.622 60.0447 179.593 60.0428H178.376V62.9427C178.376 63.3121 178.587 63.53 179.049 63.53H179.603C179.728 63.53 179.813 63.5725 179.813 63.6981V64.919C179.813 65.0465 179.73 65.0871 179.603 65.0871H178.762C177.285 65.0871 176.62 64.2892 176.62 63.1551V59.9985H175.864C175.737 59.9985 175.654 59.956 175.654 59.7879V58.7369C175.652 58.7088 175.656 58.6807 175.666 58.6545C175.676 58.6282 175.692 58.6043 175.712 58.5844C175.732 58.5646 175.755 58.5491 175.782 58.5391C175.808 58.5291 175.836 58.5247 175.864 58.5263H176.662V57.0986C176.662 56.9711 176.705 56.9305 176.83 56.9305H178.215C178.289 56.9766 178.374 57.0173 178.374 57.141L178.376 57.1429ZM186.319 60.6301V64.919C186.321 64.9417 186.318 64.9645 186.311 64.986C186.303 65.0074 186.291 65.0269 186.275 65.043C186.258 65.0591 186.239 65.0714 186.217 65.079C186.196 65.0867 186.173 65.0894 186.151 65.0871H184.848C184.823 65.0907 184.798 65.0892 184.774 65.0826C184.749 65.076 184.726 65.0644 184.707 65.0487C184.687 65.0329 184.671 65.0133 184.659 64.991C184.647 64.9687 184.64 64.9442 184.638 64.919V64.2061C184.455 64.5205 184.19 64.7801 183.873 64.9575C183.555 65.1349 183.195 65.2237 182.831 65.2146C182.562 65.2322 182.292 65.1922 182.039 65.0971C181.786 65.0019 181.557 64.854 181.366 64.663C181.175 64.4721 181.027 64.2426 180.932 63.9899C180.837 63.7371 180.797 63.467 180.814 63.1976C180.814 62.0191 181.57 61.3062 183.378 61.1806C183.769 61.1388 184.164 61.1388 184.555 61.1806V60.7188C184.572 60.5988 184.561 60.4765 184.523 60.3615C184.485 60.2464 184.42 60.1419 184.334 60.0562C184.249 59.9705 184.144 59.9059 184.029 59.8677C183.914 59.8295 183.792 59.8186 183.672 59.8359C183.478 59.807 183.28 59.8511 183.117 59.9596C182.954 60.0681 182.837 60.2334 182.789 60.4233C182.783 60.4493 182.771 60.4737 182.754 60.4948C182.738 60.5158 182.717 60.533 182.693 60.5452C182.669 60.5573 182.643 60.5641 182.616 60.565C182.589 60.566 182.562 60.5611 182.538 60.5507L181.235 60.2146C181.11 60.1721 181.11 60.0871 181.11 60.004C181.278 59.0805 182.159 58.3656 183.757 58.3656C185.395 58.4081 186.319 59.1636 186.319 60.6338M184.555 62.9039V62.274C184.204 62.2665 183.853 62.2807 183.504 62.3165C182.831 62.3996 182.495 62.6102 182.495 63.1145C182.495 63.5762 182.789 63.8293 183.293 63.8293C183.575 63.8342 183.852 63.7465 184.079 63.5798C184.307 63.413 184.474 63.1744 184.555 62.9039ZM191.697 58.6575V59.919C191.697 60.0853 191.655 60.1296 191.485 60.1296H191.274C190.903 60.0753 190.526 60.1616 190.215 60.3714C189.905 60.5812 189.683 60.8994 189.595 61.2637V64.919C189.597 64.9416 189.594 64.9643 189.586 64.9856C189.579 65.0069 189.566 65.0262 189.55 65.0423C189.534 65.0583 189.515 65.0706 189.494 65.0784C189.473 65.0861 189.45 65.0891 189.427 65.0871H187.915C187.892 65.0891 187.869 65.0861 187.848 65.0784C187.827 65.0706 187.807 65.0583 187.791 65.0423C187.775 65.0262 187.763 65.0069 187.755 64.9856C187.747 64.9643 187.744 64.9416 187.746 64.919V58.6963C187.744 58.6737 187.747 58.651 187.755 58.6297C187.763 58.6084 187.775 58.5891 187.791 58.573C187.807 58.557 187.827 58.5447 187.848 58.5369C187.869 58.5292 187.892 58.5262 187.915 58.5282H189.259C189.387 58.5282 189.427 58.6131 189.427 58.7387V59.6216C189.597 59.2684 189.867 58.9726 190.203 58.771C190.539 58.5695 190.927 58.4709 191.319 58.4875C191.651 58.4451 191.697 58.4857 191.697 58.6538V58.6575ZM195.268 57.1447V58.5744H196.485C196.611 58.5744 196.695 58.6168 196.695 58.7849V59.8341C196.697 59.8622 196.693 59.8904 196.683 59.9168C196.673 59.9433 196.658 59.9672 196.638 59.9872C196.618 60.0071 196.594 60.0226 196.568 60.0325C196.541 60.0424 196.513 60.0465 196.485 60.0446H195.268V62.9445C195.268 63.3139 195.478 63.5319 195.94 63.5319H196.494C196.62 63.5319 196.705 63.5744 196.705 63.7V64.919C196.705 65.0465 196.622 65.0871 196.494 65.0871H195.696C194.219 65.0871 193.554 64.2892 193.554 63.1551V59.9985H192.796C192.671 59.9985 192.586 59.956 192.586 59.7879V58.7369C192.584 58.7088 192.588 58.6807 192.598 58.6545C192.608 58.6282 192.624 58.6043 192.644 58.5844C192.664 58.5646 192.688 58.5491 192.714 58.5391C192.74 58.5291 192.768 58.5247 192.796 58.5263H193.594V57.0986C193.594 56.9711 193.637 56.9305 193.762 56.9305H195.148C195.183 56.9536 195.211 56.9849 195.232 57.0215C195.252 57.0582 195.263 57.0992 195.264 57.141L195.268 57.1447ZM203.083 60.0021C203.093 60.0267 203.098 60.0533 203.097 60.08C203.096 60.1066 203.09 60.1328 203.078 60.1567C203.066 60.1806 203.049 60.2016 203.028 60.2183C203.007 60.2349 202.983 60.2469 202.957 60.2533L201.864 60.6228C201.839 60.6332 201.812 60.6381 201.786 60.6372C201.759 60.6364 201.733 60.6298 201.709 60.6178C201.685 60.6059 201.664 60.5889 201.647 60.5681C201.631 60.5473 201.619 60.5231 201.612 60.4972C201.531 60.2683 201.374 60.0735 201.169 59.9439C200.963 59.8143 200.72 59.7574 200.478 59.7823C199.924 59.7823 199.595 59.9929 199.595 60.3365C199.595 60.68 199.848 60.7982 201.108 61.1344C202.586 61.5038 203.168 62.1429 203.168 63.1939C203.168 64.4536 202.117 65.294 200.521 65.294C199.942 65.3723 199.353 65.2587 198.844 64.9705C198.336 64.6822 197.936 64.2353 197.706 63.6981C197.663 63.5707 197.706 63.4876 197.874 63.4044L198.84 62.9408C198.965 62.8577 199.05 62.8983 199.134 63.0683C199.241 63.3289 199.43 63.5476 199.673 63.6915C199.915 63.8354 200.198 63.8967 200.478 63.8662C201.151 63.8662 201.487 63.6556 201.487 63.2788C201.487 62.9427 201.117 62.7247 199.931 62.4384C198.504 62.069 197.874 61.4724 197.874 60.4621C197.874 59.2024 198.882 58.4044 200.436 58.4044C200.988 58.3557 201.542 58.4838 202.017 58.7703C202.492 59.0569 202.864 59.4869 203.079 59.9985L203.083 60.0021ZM214.3 56.598V64.9098C214.3 65.0372 214.257 65.0779 214.134 65.0779H212.656C212.631 65.0815 212.606 65.08 212.581 65.0733C212.557 65.0667 212.534 65.0552 212.514 65.0394C212.495 65.0237 212.478 65.0041 212.466 64.9818C212.455 64.9595 212.447 64.935 212.445 64.9098V61.5943H209.461V64.919C209.461 65.0465 209.418 65.0871 209.294 65.0871H207.782C207.759 65.0894 207.736 65.0867 207.715 65.079C207.693 65.0714 207.674 65.0591 207.658 65.043C207.641 65.0269 207.629 65.0074 207.622 64.986C207.614 64.9645 207.611 64.9417 207.613 64.919V56.6072C207.613 56.4816 207.697 56.441 207.824 56.441H209.302C209.324 56.439 209.347 56.442 209.368 56.4496C209.389 56.4573 209.408 56.4695 209.424 56.4853C209.439 56.5012 209.452 56.5203 209.459 56.5414C209.467 56.5624 209.47 56.5849 209.468 56.6072V59.9319H212.453V56.6072C212.453 56.4816 212.536 56.441 212.663 56.441H214.141C214.163 56.439 214.186 56.442 214.207 56.4496C214.228 56.4573 214.247 56.4695 214.263 56.4853C214.279 56.5012 214.291 56.5203 214.299 56.5414C214.306 56.5624 214.309 56.5849 214.307 56.6072M217.543 62.3645V62.6157C217.525 62.7748 217.542 62.9361 217.595 63.0874C217.647 63.2387 217.733 63.3762 217.847 63.4895C217.96 63.6029 218.097 63.6891 218.248 63.7419C218.4 63.7947 218.561 63.8125 218.72 63.7942C218.98 63.834 219.246 63.7852 219.475 63.6555C219.703 63.5258 219.882 63.3229 219.981 63.0794C220.107 62.9113 220.149 62.8688 220.318 62.9519L221.241 63.4155C221.452 63.4986 221.452 63.6261 221.367 63.7849C221.112 64.2547 220.726 64.64 220.256 64.8936C219.786 65.1472 219.252 65.2581 218.72 65.2127C218.35 65.2582 217.974 65.223 217.619 65.1097C217.263 64.9963 216.937 64.8075 216.661 64.556C216.386 64.3046 216.168 63.9966 216.023 63.653C215.878 63.3095 215.808 62.9387 215.82 62.5659V61.0402C215.802 60.6656 215.866 60.2915 216.009 59.9447C216.152 59.598 216.37 59.287 216.647 59.0342C216.924 58.7813 217.253 58.5928 217.612 58.482C217.97 58.3712 218.348 58.3409 218.72 58.3933C219.079 58.3602 219.441 58.4054 219.781 58.5257C220.12 58.646 220.43 58.8387 220.688 59.0903C220.946 59.3419 221.147 59.6466 221.276 59.9832C221.405 60.3199 221.459 60.6805 221.435 61.0402V62.0912C221.435 62.2593 221.394 62.3849 221.141 62.3849H217.527L217.543 62.3645ZM217.543 60.9774V61.188H219.813V60.9663C219.813 60.6653 219.694 60.3766 219.481 60.1637C219.268 59.9509 218.979 59.8313 218.678 59.8313C218.377 59.8313 218.089 59.9509 217.876 60.1637C217.663 60.3766 217.543 60.6653 217.543 60.9663M226.66 58.6556V59.9172C226.66 60.0834 226.618 60.1277 226.45 60.1277H226.237C225.866 60.0734 225.488 60.1596 225.177 60.3694C224.867 60.5791 224.645 60.8974 224.557 61.2618V64.919C224.559 64.9415 224.556 64.9642 224.549 64.9855C224.541 65.0068 224.529 65.0262 224.513 65.0422C224.497 65.0583 224.478 65.0706 224.457 65.0784C224.436 65.0862 224.413 65.0891 224.39 65.0871H222.878C222.855 65.0894 222.832 65.0867 222.811 65.079C222.789 65.0714 222.77 65.0591 222.754 65.043C222.738 65.0269 222.725 65.0074 222.718 64.986C222.71 64.9645 222.707 64.9417 222.71 64.919V58.6963C222.708 58.6737 222.711 58.651 222.718 58.6297C222.726 58.6084 222.738 58.5891 222.754 58.573C222.77 58.557 222.79 58.5447 222.811 58.5369C222.832 58.5292 222.855 58.5262 222.878 58.5282H224.222C224.348 58.5282 224.39 58.6131 224.39 58.7387V59.6216C224.56 59.2685 224.829 58.9728 225.165 58.7712C225.501 58.5697 225.889 58.471 226.28 58.4875C226.607 58.4451 226.649 58.4857 226.649 58.6538L226.66 58.6556ZM229.307 62.3498V62.601C229.289 62.76 229.306 62.9213 229.359 63.0726C229.411 63.2239 229.497 63.3614 229.611 63.4747C229.724 63.5881 229.861 63.6744 230.012 63.7271C230.164 63.7799 230.325 63.7977 230.484 63.7794C230.744 63.8192 231.01 63.7704 231.239 63.6407C231.467 63.5111 231.646 63.3081 231.745 63.0646C231.871 62.8965 231.912 62.854 232.08 62.9371L233.003 63.4007C233.214 63.4839 233.214 63.6113 233.131 63.7702C232.876 64.2397 232.49 64.6249 232.02 64.8785C231.55 65.1321 231.016 65.2431 230.484 65.1979C230.114 65.2434 229.738 65.2083 229.383 65.0949C229.027 64.9816 228.701 64.7927 228.425 64.5413C228.15 64.2898 227.932 63.9818 227.787 63.6383C227.642 63.2948 227.572 62.9239 227.584 62.5511V61.0402C227.566 60.6656 227.63 60.2915 227.773 59.9447C227.916 59.598 228.134 59.287 228.411 59.0342C228.688 58.7813 229.017 58.5928 229.376 58.482C229.734 58.3712 230.112 58.3409 230.484 58.3933C230.844 58.3576 231.208 58.4009 231.55 58.52C231.892 58.6392 232.203 58.8315 232.463 59.0834C232.723 59.3353 232.925 59.6409 233.055 59.9788C233.185 60.3168 233.24 60.679 233.216 61.0402V62.0912C233.216 62.2593 233.173 62.3849 232.922 62.3849H229.307V62.3498ZM229.307 60.9626V61.1732H231.577V60.9663C231.592 60.8137 231.573 60.6596 231.521 60.5153C231.47 60.3709 231.387 60.2398 231.278 60.1313C231.17 60.0229 231.039 59.9398 230.894 59.8881C230.75 59.8364 230.596 59.8173 230.443 59.8322C230.291 59.8209 230.139 59.8425 229.996 59.8955C229.853 59.9485 229.724 60.0316 229.616 60.1393C229.508 60.2469 229.425 60.3765 229.372 60.5193C229.319 60.662 229.298 60.8145 229.309 60.9663" fill="#EFEFEF"/>
<path d="M54.9406 41.3872V26.2173C54.9401 22.7793 54.2624 19.3751 52.9463 16.199C51.6301 13.023 49.7012 10.1373 47.2698 7.70672C44.8383 5.27614 41.952 3.34829 38.7755 2.03326C35.5989 0.718221 32.1945 0.0417533 28.7565 0.0424811H0.900938C0.678195 0.042969 0.464716 0.131668 0.307213 0.289171C0.14971 0.446674 0.0610348 0.660154 0.0605469 0.882896V41.3872C0.0615264 48.3289 2.81949 54.986 7.72801 59.8945C12.6365 64.803 19.2936 67.561 26.2353 67.562H28.7565C35.6958 67.5503 42.3476 64.7891 47.2552 59.8832C52.1629 54.9773 54.9264 48.3265 54.9406 41.3872ZM46.5382 41.8065C46.5382 51.6384 39.3126 59.1172 28.051 59.1172C14.7318 59.1172 8.47206 51.2173 8.47206 40.3344V27.1833C8.47206 16.3428 14.6893 8.40231 28.051 8.40231C38.8489 8.40231 43.7234 14.5789 45.6554 20.713C45.7307 20.8771 45.7695 21.0555 45.7693 21.236C45.769 21.4165 45.7295 21.5948 45.6537 21.7586C45.5779 21.9224 45.4674 22.0678 45.3299 22.1848C45.1925 22.3018 45.0313 22.3876 44.8574 22.4363L37.6317 24.5789C36.7488 24.8301 36.2871 24.5789 36.0359 23.696C35.6229 21.938 34.5857 20.3897 33.1171 19.3389C31.6484 18.2881 29.8482 17.8063 28.051 17.983C21.2039 17.983 18.9339 22.017 18.9339 27.4363V39.9151C18.9339 45.3344 21.2039 49.3684 28.051 49.3684C33.6827 49.3684 36.6232 46.764 36.6232 41.0566V39.4607H29.102C28.9595 39.4706 28.8166 39.4484 28.6839 39.3957C28.5512 39.343 28.432 39.2611 28.3352 39.1561C28.2384 39.0511 28.1664 38.9257 28.1245 38.7892C28.0827 38.6527 28.0721 38.5085 28.0935 38.3673V31.4777C28.0793 31.3378 28.095 31.1965 28.1395 31.0632C28.184 30.9298 28.2563 30.8074 28.3517 30.7041C28.447 30.6007 28.5632 30.5188 28.6925 30.4636C28.8218 30.4085 28.9614 30.3814 29.102 30.3842H45.4448C46.1171 30.3842 46.5382 30.7204 46.5382 31.3927V41.8065Z" fill="#EFEFEF"/>
<path fill-rule="evenodd" clip-rule="evenodd" d="M242.491 67.5195V0H246.186V67.5195H242.491Z" fill="#EFEFEF"/>
<path d="M289.171 58.6113C289.171 59.9042 289.884 60.6282 291.69 61.3006C293.076 61.803 293.413 62.0985 293.413 62.7302C293.413 63.4007 292.826 63.8218 291.936 63.8218C291.57 63.8784 291.195 63.7923 290.891 63.5814C290.586 63.3704 290.374 63.0505 290.297 62.6877C290.255 62.5621 290.212 62.5196 290.044 62.5621L289.078 62.8983C289.053 62.9047 289.028 62.9167 289.007 62.9334C288.987 62.9501 288.97 62.9711 288.958 62.995C288.946 63.0188 288.939 63.045 288.938 63.0717C288.937 63.0984 288.942 63.1249 288.953 63.1495C289.113 63.7973 289.505 64.3641 290.055 64.7431C290.604 65.1221 291.273 65.2871 291.936 65.2071C292.302 65.2474 292.673 65.212 293.025 65.103C293.378 64.9941 293.704 64.8139 293.983 64.5737C294.263 64.3335 294.491 64.0383 294.651 63.7066C294.812 63.3749 294.903 63.0136 294.919 62.6452C294.919 61.428 294.246 60.6707 292.651 60.0815C291.053 59.5274 290.676 59.2429 290.676 58.6537C290.676 57.9814 291.179 57.6046 292.019 57.6046C292.338 57.5749 292.658 57.6543 292.926 57.8297C293.195 58.0052 293.396 58.2663 293.497 58.5706C293.503 58.5965 293.515 58.6207 293.532 58.6416C293.548 58.6624 293.569 58.6794 293.593 58.6913C293.617 58.7032 293.643 58.7099 293.67 58.7107C293.697 58.7116 293.723 58.7066 293.748 58.6962L294.671 58.36C294.697 58.3536 294.721 58.3416 294.742 58.325C294.763 58.3083 294.78 58.2873 294.792 58.2634C294.804 58.2395 294.811 58.2133 294.811 58.1867C294.812 58.16 294.807 58.1334 294.797 58.1088C294.588 57.5423 294.21 57.0534 293.715 56.708C293.219 56.3626 292.63 56.1772 292.026 56.1768C291.677 56.1397 291.324 56.1742 290.988 56.2782C290.652 56.3822 290.341 56.5535 290.074 56.7817C289.807 57.0098 289.589 57.2901 289.434 57.6053C289.278 57.9205 289.189 58.264 289.171 58.6149" fill="#EFEFEF"/>
<path d="M283.329 57.8112H284.715C285.725 57.8112 286.102 58.273 286.102 59.0728V59.2833C286.102 60.0794 285.682 60.543 284.715 60.543H283.329V57.8112ZM281.942 56.3336C281.816 56.3336 281.774 56.376 281.774 56.5016V64.8633C281.774 64.9889 281.816 65.0296 281.942 65.0296H283.119C283.244 65.0296 283.287 64.9871 283.287 64.8633V61.8027H284.504L286.185 64.9113C286.268 65.0388 286.31 65.0794 286.436 65.0794H287.738C287.906 65.0794 287.906 64.9963 287.821 64.7857L286.015 61.5497C286.498 61.385 286.913 61.0646 287.194 60.6387C287.476 60.2129 287.608 59.7056 287.57 59.1965V58.9028C287.59 58.5427 287.531 58.1825 287.396 57.8481C287.261 57.5136 287.054 57.2132 286.789 56.9682C286.524 56.7232 286.208 56.5398 285.865 56.431C285.521 56.3223 285.157 56.2909 284.799 56.3391L281.942 56.3336Z" fill="#EFEFEF"/>
<path d="M276.189 60.501C276.442 59.6606 276.743 58.6928 276.904 57.9392H276.946C277.112 58.6946 277.365 59.7013 277.618 60.501L277.942 61.5095H275.895L276.189 60.501ZM276.106 56.3821C276.057 56.3814 276.009 56.3978 275.97 56.4285C275.932 56.4591 275.905 56.5021 275.895 56.5502L273.291 64.862C273.248 64.9876 273.291 65.0707 273.416 65.0707H274.551C274.6 65.071 274.647 65.0545 274.686 65.0239C274.724 64.9933 274.75 64.9505 274.761 64.9026L275.391 62.8875H278.333L278.961 64.9026C279.004 65.0301 279.046 65.0707 279.174 65.0707H280.433C280.518 65.0707 280.559 64.9876 280.518 64.862L277.872 56.5502C277.857 56.4964 277.824 56.4497 277.778 56.4188C277.731 56.3879 277.676 56.3748 277.62 56.3821H276.106Z" fill="#EFEFEF"/>
<path d="M267.404 56.4242C267.278 56.4242 267.236 56.4667 267.236 56.5923V64.9613C267.236 65.0869 267.278 65.1276 267.404 65.1276H272.193C272.321 65.1276 272.361 65.0851 272.361 64.9613V63.9103C272.361 63.7847 272.319 63.7423 272.193 63.7423H268.748V61.3411H271.816C271.942 61.3411 271.983 61.2986 271.983 61.173V60.2051C271.983 60.0777 271.94 60.037 271.816 60.037H268.748V57.8113H272.151C272.278 57.8113 272.319 57.7688 272.319 57.6432V56.5923C272.321 56.5697 272.318 56.547 272.31 56.5257C272.302 56.5044 272.29 56.485 272.274 56.469C272.258 56.453 272.239 56.4407 272.217 56.4329C272.196 56.4252 272.173 56.4222 272.151 56.4242H267.404Z" fill="#EFEFEF"/>
<path d="M264.674 56.4241C264.546 56.4241 264.463 56.4241 264.423 56.5515L262.576 60.1237L260.684 56.5515C260.659 56.5079 260.622 56.4726 260.578 56.4499C260.533 56.4273 260.483 56.4183 260.433 56.4241H259.131C258.963 56.4241 258.92 56.509 259.005 56.6365L261.735 61.5109V64.9132C261.733 64.9358 261.736 64.9587 261.743 64.9802C261.751 65.0016 261.763 65.0211 261.779 65.0372C261.795 65.0533 261.815 65.0656 261.836 65.0732C261.858 65.0808 261.881 65.0836 261.903 65.0813H263.082C263.207 65.0813 263.248 65.0388 263.248 64.9132V61.4666L265.98 56.6365C266.022 56.5515 265.98 56.4241 265.895 56.4241H264.674Z" fill="#EFEFEF"/>
<path d="M254.549 25.9635C254.423 26.5176 254.592 26.9295 255.053 27.057L259.466 28.3499C259.567 28.3999 259.679 28.4247 259.792 28.4222C259.905 28.4198 260.016 28.3901 260.115 28.3357C260.214 28.2813 260.298 28.2038 260.361 28.1098C260.423 28.0158 260.462 27.9081 260.474 27.7958C260.607 26.7557 261.117 25.8004 261.907 25.1111C262.697 24.4217 263.713 24.0461 264.761 24.0555C265.286 24.0096 265.815 24.0772 266.312 24.2537C266.809 24.4301 267.261 24.7113 267.64 25.0781C268.018 25.445 268.313 25.8889 268.505 26.3798C268.697 26.8707 268.781 27.3971 268.751 27.9233C268.794 30.2321 267.534 31.828 263.121 35.6939L254.717 43.132C254.594 43.2989 254.508 43.4902 254.465 43.6932C254.421 43.8961 254.422 44.1059 254.466 44.3086L255.264 48.4257C255.349 48.8468 255.6 49.0149 256.064 49.0149H274.928C275.016 49.0277 275.105 49.0206 275.19 48.994C275.274 48.9674 275.352 48.922 275.416 48.8613C275.481 48.8006 275.531 48.726 275.563 48.6433C275.595 48.5605 275.607 48.4716 275.6 48.3832V43.6362C275.607 43.5479 275.595 43.459 275.563 43.3762C275.531 43.2934 275.481 43.2189 275.416 43.1582C275.352 43.0975 275.274 43.0521 275.19 43.0255C275.105 42.9989 275.016 42.9917 274.928 43.0046H263.204L268.415 38.7563C272.785 35.1859 275.347 32.2916 275.306 27.4892C275.264 21.9849 271.441 18.0691 264.928 18.0359C262.527 17.8365 260.138 18.5335 258.221 19.9925C256.304 21.4515 254.996 23.5688 254.549 25.9358" fill="#EFEFEF"/>
<path d="M297.406 18.654H280.097C279.676 18.654 279.339 18.8221 279.382 19.3263V34.1158C279.382 34.7881 279.633 34.9156 280.097 35.1262L283.92 36.8495C284.423 37.1007 284.633 37.0582 285.012 36.5964C285.451 35.9778 286.04 35.4801 286.723 35.1495C287.407 34.8189 288.162 34.666 288.92 34.705C289.473 34.6415 290.033 34.7008 290.56 34.8786C291.087 35.0564 291.568 35.3485 291.969 35.7338C292.371 36.1191 292.682 36.5883 292.881 37.1078C293.08 37.6273 293.162 38.1843 293.12 38.739V39.6201C293.176 40.2099 293.098 40.8047 292.891 41.3598C292.683 41.9148 292.353 42.4157 291.924 42.8246C291.496 43.2336 290.98 43.5399 290.416 43.7207C289.851 43.9015 289.254 43.952 288.667 43.8683C287.685 43.9632 286.698 43.7411 285.852 43.2346C285.005 42.728 284.343 41.9636 283.963 41.0534C283.667 40.5491 283.375 40.4235 282.869 40.6341L278.835 42.1118C278.724 42.1167 278.616 42.1496 278.521 42.2074C278.426 42.2652 278.348 42.346 278.292 42.4424C278.237 42.5388 278.207 42.6475 278.205 42.7586C278.203 42.8697 278.229 42.9795 278.281 43.0778C279.29 46.312 282.315 49.6312 288.66 49.6312C295.679 49.6312 299.373 45.5159 299.373 39.9692V38.3992C299.459 37.2105 299.295 36.0171 298.892 34.8955C298.489 33.7739 297.856 32.749 297.034 31.8866C296.212 31.0241 295.218 30.3433 294.117 29.8877C293.015 29.4322 291.831 29.212 290.64 29.2414C289.624 29.1871 288.608 29.3337 287.649 29.6728C286.69 30.012 285.808 30.537 285.052 31.2178L284.884 31.1753V24.3282H297.363C297.699 24.3282 297.917 24.1158 297.917 23.6947V19.1989C297.917 18.8886 297.733 18.6448 297.474 18.6448H297.411" fill="#EFEFEF"/>
</svg>
