<svg width="43" height="44" viewBox="0 0 43 44" fill="none" xmlns="http://www.w3.org/2000/svg">
<path d="M30.5341 24.0178C28.663 24.5579 27.5892 26.5061 28.1293 28.3772C28.6694 30.2418 30.6177 31.322 32.4887 30.7819C34.3534 30.2418 35.4336 28.2936 34.8935 26.4225C34.3534 24.5515 32.4051 23.4777 30.5341 24.0178ZM26.0782 8.59267C24.2136 9.13277 23.1334 11.081 23.6735 12.9521C24.2136 14.8232 26.1618 15.8969 28.0329 15.3568C29.9039 14.8167 30.9777 12.8685 30.4376 10.9974C29.8975 9.12634 27.9493 8.05257 26.0782 8.59267ZM14.6975 28.5894C12.8328 29.1295 11.7526 31.0777 12.2927 32.9488C12.8328 34.8134 14.7811 35.8936 16.6521 35.3535C18.5168 34.8134 19.597 32.8652 19.0569 30.9941C18.5168 29.123 16.5621 28.0493 14.6975 28.5894ZM10.2416 13.1643C8.37697 13.7044 7.29677 15.6526 7.83687 17.5237C8.37697 19.3883 10.3252 20.4685 12.1963 19.9284C14.0609 19.3883 15.1411 17.4401 14.601 15.569C14.0609 13.7044 12.1127 12.6242 10.2416 13.1643ZM38.9249 35.585L13.7716 42.8507C11.2318 43.5837 8.55056 42.1048 7.81756 39.565L0.526169 14.3152C-0.206828 11.7754 1.27204 9.09421 3.81181 8.36121L28.9652 1.09552C31.505 0.362526 34.1862 1.84139 34.9192 4.38116L42.2106 29.631C42.9436 32.1708 41.4647 34.852 38.9249 35.585Z" fill="#FF1D25"/>
</svg>
