<svg width="283" height="98" viewBox="0 0 283 98" fill="none" xmlns="http://www.w3.org/2000/svg">
<g clip-path="url(#clip0_3_158)">
<path d="M6.78296 66.876H0L12.3651 35.7046C13.667 32.4319 16.0687 31.1831 19.7782 31.1831C23.4877 31.1831 25.83 32.4319 27.0843 35.7046L38.9798 66.876H32.1433L21.4427 38.6638C21.1277 37.8352 20.557 37.4683 19.7187 37.4683C18.8805 37.4683 18.3098 37.8293 17.9472 38.6638L6.77702 66.876H6.78296Z" fill="#C317C6"/>
<path d="M62.1524 31.8105C70.0827 31.8105 73.4771 36.6931 73.4771 42.3036C73.4771 47.6004 70.3978 53.3174 62.1524 53.3174H51.1962C50.6196 53.3174 50.3104 53.5778 50.3104 54.1992V66.8761H44.1517V53.0037C44.1517 49.0563 45.8222 47.4465 49.6862 47.4465H62.3664C65.8619 47.4465 67.2708 45.0556 67.2708 42.6172C67.2708 40.1789 65.7549 37.9418 62.4199 37.9418H44.1041V31.8105H62.1583H62.1524Z" fill="#C317C6"/>
<path d="M122.058 31.8105C121.992 31.8461 121.927 31.8816 121.862 31.9171V31.8105H122.058Z" fill="#C317C6"/>
<path d="M128.02 33.3906C125.922 34.45 123.871 35.5271 121.862 36.6279L128.02 33.3906Z" fill="#C317C6"/>
<path d="M135.219 60.7507C129.691 60.7507 128.02 58.0993 128.02 54.72V33.3907C125.922 34.4501 123.871 35.5272 121.862 36.628V54.7733C121.862 61.7864 125.518 66.8761 134.857 66.8761H148.892V60.7507H135.219ZM121.862 31.8105V31.9171C121.927 31.8816 121.992 31.8461 122.058 31.8105H121.862Z" fill="#C317C6"/>
<path d="M179.312 60.7507C175.578 62.8694 171.667 64.9171 167.606 66.8761H166.376C157.037 66.8761 153.387 61.7864 153.387 54.7733V31.8105H159.539V54.72C159.539 58.0993 161.21 60.7507 166.744 60.7507H179.312Z" fill="#C317C6"/>
<path d="M166.744 60.7507C161.21 60.7507 159.539 58.0993 159.539 54.72V31.8105H153.387V54.7733C153.387 61.7864 157.037 66.8761 166.376 66.8761H167.606C171.667 64.9171 175.578 62.8694 179.312 60.7507H166.744Z" fill="#C317C6"/>
<path d="M114.972 49.4232C114.972 61.165 109.336 66.8761 99.0515 66.8761H94.2541C90.9845 66.8761 88.1845 66.302 85.8898 65.1302C87.0252 63.5264 88.3807 61.8574 89.956 60.1411C91.1687 60.5554 92.5955 60.7507 94.2541 60.7507H99.0515C105.84 60.7507 108.759 57.4247 108.759 49.3699C108.759 47.6537 108.623 46.1445 108.343 44.8366C108.159 43.9666 107.915 43.1913 107.588 42.493C107.338 41.9248 107.041 41.4099 106.69 40.9542C106.191 40.2914 105.591 39.7469 104.889 39.3089C103.409 38.3798 101.477 37.9418 99.0515 37.9418H94.2541C87.4711 37.9418 84.4928 41.3685 84.4928 49.4232C84.4928 51.8793 84.7662 53.8915 85.3488 55.5071C83.714 57.2708 82.2694 59.0107 81.027 60.7152C79.2555 57.9218 78.334 54.1637 78.334 49.4232C78.334 37.6282 84.0232 31.8105 94.2541 31.8105H99.0515C103.896 31.8105 107.731 33.1185 110.412 35.7521C110.983 36.3025 111.494 36.9121 111.952 37.5867C112.29 38.0661 112.594 38.5751 112.867 39.1136C113.224 39.8002 113.533 40.534 113.794 41.3211C114.573 43.6056 114.972 46.3043 114.972 49.4232Z" fill="#C317C6"/>
<path d="M220.497 49.4232C220.497 61.165 214.861 66.8761 204.583 66.8761H199.779C194.893 66.8761 191.052 65.5859 188.371 62.9641C187.807 62.4137 187.289 61.8041 186.832 61.1295C186.499 60.6501 186.202 60.147 185.928 59.6085C185.571 58.922 185.262 58.1822 185.001 57.3891C184.252 55.1402 183.865 52.4889 183.865 49.4232C183.865 37.6282 189.548 31.8105 199.779 31.8105H204.583C207.84 31.8105 210.635 32.4024 212.929 33.586C211.794 35.1899 210.432 36.8588 208.857 38.5692C207.65 38.1431 206.229 37.9418 204.583 37.9418H199.779C192.996 37.9418 190.018 41.3685 190.018 49.4232C190.018 51.1217 190.149 52.6072 190.422 53.8915C190.607 54.7674 190.856 55.5486 191.171 56.241C191.427 56.8092 191.73 57.3181 192.087 57.7738C192.586 58.4308 193.187 58.9752 193.894 59.4073C195.38 60.3246 197.33 60.7507 199.773 60.7507H204.577C211.36 60.7507 214.279 57.4247 214.279 49.3699C214.279 46.902 213.999 44.8721 213.417 43.2446C215.057 41.475 216.508 39.7291 217.762 38.0188C219.558 40.8418 220.491 44.6413 220.491 49.4232H220.497Z" fill="#C317C6"/>
<path d="M235.145 37.9419C237.053 37.9419 238.081 39.0604 238.081 41.3508V45.9374C238.081 48.1982 237.291 49.0918 235.05 49.0918H230.294V47.5531H234.871C236.066 47.5531 236.464 47.0856 236.464 45.9374V45.5764H232.933C230.799 45.5764 229.462 44.3217 229.462 41.7473C229.462 39.1729 230.793 37.9478 232.933 37.9478H235.145V37.9419ZM233.082 44.1264H236.459V41.333C236.459 40.0369 235.959 39.4806 234.669 39.4806H233.076C231.697 39.4806 231.079 40.1731 231.079 41.8065C231.079 43.4399 231.703 44.1264 233.076 44.1264H233.082Z" fill="#EFEFEF"/>
<path d="M245.447 37.9419C247.444 37.9419 248.235 39.0604 248.235 40.5637V44.304C248.235 45.4521 247.932 45.9019 246.582 45.9019H242.837C240.941 45.9019 240.156 44.9846 240.156 43.4754C240.156 41.9663 240.881 41.1851 242.855 41.1851H246.66V40.5814C246.66 39.9659 246.309 39.4806 245.435 39.4806H240.65V37.9419H245.453H245.447ZM246.654 43.943V42.4516H242.879C242.029 42.4516 241.726 42.8008 241.726 43.3867C241.726 43.9726 242.047 44.3513 242.849 44.3513H246.214C246.535 44.3513 246.654 44.233 246.654 43.943Z" fill="#EFEFEF"/>
<path d="M259.851 37.9417C262.562 37.9417 263.894 39.226 263.894 41.4275V45.9076H262.271V41.4275C262.271 40.1729 261.545 39.4804 259.863 39.4804H257.984V45.9076H256.362V39.4804H252.301C252.165 39.4804 252.105 39.5574 252.105 39.7053V45.9017H250.5V39.1727C250.5 38.2376 250.821 37.9358 251.624 37.9358H259.851V37.9417Z" fill="#EFEFEF"/>
<path d="M271.348 37.9419C273.245 37.9419 274.047 38.8474 274.047 40.3861C274.047 41.9249 273.304 42.6765 271.336 42.6765H267.532V43.2505C267.532 43.8838 267.883 44.3513 268.756 44.3513H273.649V45.9078H268.756C266.759 45.9078 265.968 44.7893 265.968 43.2861V40.5696C265.968 39.0604 266.759 37.9478 268.756 37.9478H271.348V37.9419ZM267.532 41.4218H271.289C272.151 41.4218 272.472 41.0608 272.472 40.469C272.472 39.8772 272.121 39.4747 271.336 39.4747H268.762C267.883 39.4747 267.538 39.96 267.538 40.5755V41.4218H267.532Z" fill="#EFEFEF"/>
<path d="M282.685 37.9419V39.4806H278.262C277.519 39.4806 277.216 39.7825 277.216 40.3861C277.216 40.9424 277.46 41.2443 278.351 41.2443H280.23C282.441 41.2443 283 42.2563 283 43.4932C283 44.9136 282.257 45.9078 280.378 45.9078H275.73V44.3513H280.378C281.121 44.3513 281.425 44.0969 281.425 43.4754C281.425 42.854 281.092 42.5877 280.289 42.5877H278.393C276.181 42.5877 275.634 41.4869 275.634 40.2618C275.634 38.8296 276.378 37.9419 278.238 37.9419H282.679H282.685Z" fill="#EFEFEF"/>
<path d="M234.61 52.4297C236.732 52.4297 238.064 53.7258 238.064 56.4127C238.064 59.0995 236.732 60.3956 234.61 60.3956H231.067V63.5915H229.462V55.8386C229.462 53.5482 230.478 52.4297 232.398 52.4297H234.61ZM231.067 58.8391H234.443C235.834 58.8391 236.441 58.1289 236.441 56.4127C236.441 54.6964 235.834 53.9684 234.443 53.9684H232.868C231.566 53.9684 231.067 54.5425 231.067 55.9155V58.8391Z" fill="#EFEFEF"/>
<path d="M241.595 48.9734V60.3897H239.99V48.9734H241.595Z" fill="#EFEFEF"/>
<path d="M249.02 52.4297C251.017 52.4297 251.808 53.5482 251.808 55.0515V58.7918C251.808 59.9399 251.505 60.3897 250.155 60.3897H246.41C244.514 60.3897 243.729 59.4724 243.729 57.9632C243.729 56.4541 244.454 55.6729 246.428 55.6729H250.233V55.0692C250.233 54.4537 249.882 53.9684 249.008 53.9684H244.222V52.4297H249.026H249.02ZM250.233 58.4308V56.9394H246.458C245.607 56.9394 245.304 57.2886 245.304 57.8745C245.304 58.4604 245.619 58.8391 246.428 58.8391H249.793C250.108 58.8391 250.233 58.7208 250.233 58.4308Z" fill="#EFEFEF"/>
<path d="M262.003 52.4295L257.182 63.5913H255.452L256.95 60.1054C256.041 60.1054 255.725 59.8214 255.452 59.123L252.771 52.4236H254.465L256.873 58.3537C256.98 58.6377 257.057 58.6851 257.36 58.6851H257.574L260.285 52.4236H261.997L262.003 52.4295Z" fill="#EFEFEF"/>
<path d="M121.862 31.8105V31.9171C121.927 31.8816 121.992 31.8461 122.058 31.8105H121.862Z" fill="#C317C6"/>
<path d="M221.293 23.3475C221.293 26.715 219.932 30.5145 217.281 34.5981C216.96 35.0893 216.627 35.5805 216.27 36.0836C215.123 37.6874 213.791 39.3327 212.257 41.0075C211.865 41.4514 211.449 41.9012 211.015 42.3451C209.826 43.5938 208.536 44.8544 207.145 46.1268C203.215 49.7251 198.65 53.2997 193.579 56.7678C193.228 56.3358 192.931 55.8268 192.687 55.2231C197.639 51.832 202.098 48.3402 205.932 44.8189C207.329 43.5405 208.619 42.274 209.808 41.0312C210.224 40.5933 210.623 40.1553 211.015 39.7292C212.507 38.0662 213.815 36.4446 214.921 34.8644C215.271 34.3673 215.604 33.8761 215.908 33.3908C219.308 28.0525 220.348 23.3061 218.779 19.6605C217.626 17.0032 215.099 14.9496 211.395 13.5588C207.692 12.168 202.823 11.44 196.985 11.44C195.273 11.44 193.478 11.4992 191.605 11.6294C176.44 12.6533 157.821 17.6187 139.167 25.6024C135.861 27.0168 132.627 28.4964 129.477 30.0351C128.276 30.6151 127.081 31.2129 125.91 31.8106C124.543 32.509 123.193 33.2191 121.862 33.9352C121.261 34.2607 120.667 34.5863 120.078 34.9118C118.128 35.9889 116.226 37.0837 114.377 38.1964C114.104 37.6637 113.794 37.1488 113.462 36.6695C115.602 35.3852 117.813 34.1187 120.078 32.8759C120.667 32.5563 121.261 32.2367 121.862 31.9171C121.927 31.8816 121.992 31.8461 122.058 31.8106C123.181 31.2129 124.323 30.621 125.476 30.0351C129.649 27.9105 133.995 25.8805 138.459 23.9689C157.298 15.9083 176.125 10.8956 191.481 9.85988C207.145 8.7946 217.423 12.0319 220.414 18.9621C221.002 20.3233 221.293 21.791 221.293 23.3475Z" fill="#C317C6"/>
<path d="M185.351 62.029C184.317 62.6505 183.265 63.2719 182.201 63.8815C181.612 64.2188 181.018 64.5561 180.417 64.8876C179.216 65.5622 178.004 66.2251 176.773 66.8761C175.65 67.4797 174.508 68.0716 173.361 68.6516C169.182 70.7762 164.842 72.8062 160.372 74.7177C141.539 82.7784 122.706 87.7911 107.35 88.8327C105.4 88.9629 103.528 89.028 101.75 89.028C89.2367 89.028 81.0389 85.7967 78.4173 79.7246C76.5625 75.4279 77.6742 70.0838 81.5382 64.1123C81.8533 63.627 82.1862 63.1417 82.537 62.6445C83.6724 61.0466 85.004 59.4073 86.5259 57.7324C86.9301 57.2826 87.3463 56.8328 87.7802 56.3831C88.9811 55.1225 90.283 53.8501 91.6919 52.5599C95.6095 48.9734 100.157 45.4107 105.216 41.9485C105.555 42.3805 105.852 42.8954 106.096 43.4991C101.168 46.8843 96.7271 50.3642 92.8987 53.8678C91.4957 55.1521 90.1938 56.4245 89.0049 57.6791C88.5828 58.1289 88.1726 58.5669 87.7802 59.0048C86.2881 60.6619 84.9862 62.2895 83.8864 63.8637C83.5357 64.349 83.2147 64.8343 82.9115 65.3137C79.523 70.646 78.4826 75.3865 80.058 79.0262C82.6915 85.122 92.5955 88.0515 107.231 87.0573C122.391 86.0334 141.016 81.068 159.67 73.0843C162.981 71.6698 166.221 70.1903 169.372 68.6516C170.573 68.0656 171.768 67.4738 172.945 66.8761C175.501 65.5682 177.998 64.2247 180.417 62.8517C181.018 62.5143 181.612 62.177 182.201 61.8278C182.956 61.3958 183.699 60.9578 184.436 60.5081C184.709 61.0407 185.013 61.5497 185.351 62.029Z" fill="#C317C6"/>
<path d="M130.669 84.8206C130.858 82.1601 128.529 79.8284 125.467 79.6126C122.405 79.3967 119.769 81.3785 119.58 84.039C119.391 86.6995 121.72 89.0312 124.782 89.247C127.844 89.4629 130.48 87.4811 130.669 84.8206Z" fill="#EFEFEF"/>
<path fill-rule="evenodd" clip-rule="evenodd" d="M104.687 97.3372C106.661 95.3842 107.897 93.5732 108.795 91.8332C107.879 91.6853 105.906 91.4722 105.632 90.0992L105.234 88.0752L104.836 86.0511C104.568 84.6781 106.316 83.7371 107.107 83.2577C105.614 81.9853 103.784 80.7721 101.209 79.7068C104.027 77.6236 107.267 76.3571 108.783 76.3926C111.5 76.4577 113.468 77.5111 114.912 78.6356C122.295 75.8895 131.415 75.3746 137.877 81.6953C134.292 89.9749 125.654 92.934 117.777 93.1648C116.862 94.7509 115.447 96.4613 112.956 97.5443C111.565 98.1539 108.082 98.1953 104.687 97.3254V97.3372ZM128.145 83.601C128.496 85.3942 127.325 87.1342 125.523 87.4833C123.722 87.8325 121.974 86.6666 121.624 84.8734C121.273 83.0802 122.444 81.3402 124.245 80.991C126.047 80.6419 127.794 81.8078 128.145 83.601Z" fill="#C317C6"/>
<path d="M90.7348 79.7009L90.5683 79.4583C90.5683 79.4583 90.5564 79.4405 90.5505 79.4346L87.162 74.4633C86.7577 73.8715 85.8423 73.4631 85.0516 73.5223L78.9761 73.9662C78.2984 74.0194 77.692 74.4219 77.3948 75.0374L74.7434 80.494C74.3927 81.2101 74.4402 82.2043 74.8445 82.7962L78.2508 87.7911C78.3102 87.8799 78.3816 87.9628 78.4529 88.0279C78.8809 88.454 79.5586 88.7322 80.2007 88.7381C80.2185 88.7381 80.2423 88.7381 80.2542 88.7381C80.2898 88.7381 80.3255 88.7381 80.3612 88.7321L86.4129 88.2942C87.1323 88.2409 87.9407 87.661 88.2915 86.9448L90.8834 81.6066C91.1806 80.997 91.1271 80.2691 90.7407 79.7068L90.7348 79.7009ZM78.9761 75.0314C79.0058 74.9723 79.1187 74.8953 79.3446 74.8776L85.1229 74.4574C85.1229 74.4574 85.1824 74.4574 85.2121 74.4574C85.658 74.4574 86.1752 74.6941 86.3832 74.9959L89.7896 79.9909C89.8193 80.0323 89.8787 80.1389 89.849 80.2099C89.8193 80.2691 89.7063 80.346 89.4804 80.3638L83.7021 80.784C83.2384 80.8195 82.6559 80.5709 82.4418 80.2513L79.0355 75.2563C79.0058 75.2149 78.9463 75.1084 78.982 75.0374L78.9761 75.0314ZM79.2138 87.3946C79.1782 87.3946 79.1425 87.3769 79.1128 87.3532C79.0771 87.3236 79.0474 87.2822 79.0296 87.2585L75.6232 82.2635C75.534 82.1333 75.4805 81.9558 75.4568 81.7664C75.4449 81.6658 75.4449 81.5652 75.4508 81.4586C75.4627 81.2633 75.5103 81.0621 75.5935 80.9023L78.1141 75.712C78.2092 75.5108 78.3281 75.428 78.3994 75.428C78.4767 75.428 78.548 75.5167 78.5778 75.5582L78.6967 75.7357C78.7145 75.7653 78.7383 75.8008 78.768 75.8422L81.9722 80.5413C82.0554 80.6597 82.097 80.8017 82.1268 80.9497C82.1387 81.0384 82.1506 81.1331 82.1506 81.2337C82.1506 81.3225 82.1446 81.4113 82.1327 81.506C82.1149 81.6539 82.0733 81.796 82.0138 81.9203L79.4932 87.1106C79.3922 87.3118 79.2792 87.3887 79.2138 87.3946ZM89.9501 81.3344L87.4295 86.5246C87.3344 86.7199 87.1679 86.9093 86.9836 87.0573C86.9004 87.1224 86.8053 87.1816 86.7102 87.2289C86.5853 87.294 86.4546 87.3354 86.3357 87.3473L80.2839 87.7911C80.2839 87.7911 80.2185 87.7911 80.1769 87.7911C80.1353 87.7793 80.0877 87.7675 80.0699 87.732C80.0342 87.6728 80.0223 87.5367 80.1234 87.3355L82.644 82.1452C82.6915 82.0445 82.7629 81.9439 82.8401 81.8552C82.8996 81.7901 82.965 81.725 83.0363 81.6658C83.1077 81.6066 83.1849 81.5474 83.2563 81.5001C83.4227 81.3995 83.5892 81.3344 83.7378 81.3284L89.5161 80.9082L89.7896 80.8905C89.7896 80.8905 89.8133 80.8905 89.8252 80.8905C89.8847 80.8905 89.9738 80.9023 90.0036 80.9556C90.0392 81.0089 90.0511 81.1509 89.9501 81.3521V81.3344Z" fill="#C317C6"/>
<path d="M90.0036 80.9438C89.9679 80.8905 89.8787 80.8787 89.8252 80.8787C89.8133 80.8787 89.7955 80.8787 89.7896 80.8787L89.5161 80.8964L83.7378 81.3166C83.5892 81.3284 83.4227 81.3935 83.2563 81.4882C83.179 81.5297 83.1077 81.5888 83.0363 81.6539C82.9709 81.7131 82.8996 81.7782 82.8401 81.8433C82.7629 81.9321 82.6915 82.0327 82.644 82.1333L80.1234 87.3236C80.0223 87.5248 80.0342 87.661 80.0699 87.7201C80.0877 87.7556 80.1353 87.7675 80.1769 87.7793C80.2185 87.7852 80.2601 87.7793 80.2839 87.7793L86.3357 87.3355C86.4546 87.3295 86.5794 87.2822 86.7102 87.2171C86.8053 87.1697 86.9004 87.1106 86.9836 87.0455C87.1739 86.8975 87.3344 86.7081 87.4295 86.5128L89.9501 81.3225C90.0511 81.1213 90.0392 80.9852 90.0036 80.926V80.9438ZM82.8223 86.5542C82.3467 86.8738 81.8117 86.9153 81.6274 86.6371C81.4431 86.3649 81.675 85.8855 82.1506 85.5659C82.6261 85.2463 83.1612 85.2049 83.3454 85.4771C83.5357 85.7494 83.3038 86.2287 82.8283 86.5542H82.8223ZM87.9289 83.1039C87.4533 83.4235 86.9182 83.4649 86.734 83.1868C86.5497 82.9145 86.7815 82.4352 87.2571 82.1156C87.7327 81.796 88.2677 81.7546 88.452 82.0268C88.6363 82.299 88.4044 82.7784 87.9289 83.1039Z" fill="#C317C6"/>
<path d="M89.7836 79.985L86.3773 74.99C86.1752 74.6881 85.652 74.4514 85.2062 74.4514C85.1764 74.4514 85.1467 74.4514 85.117 74.4514L79.3387 74.8716C79.1128 74.8894 78.9998 74.9604 78.9701 75.0255C78.9344 75.1024 78.9998 75.203 79.0236 75.2445L82.43 80.2394C82.6499 80.5649 83.2266 80.8076 83.6902 80.7721L89.4685 80.3519C89.6944 80.3341 89.8074 80.2631 89.8371 80.198C89.8728 80.1211 89.8074 80.0205 89.7777 79.979L89.7836 79.985ZM84.9921 78.4758C84.4215 78.5172 83.6903 78.1681 83.3692 77.6946C83.0423 77.2211 83.2444 76.801 83.821 76.7595C84.3917 76.7181 85.1229 77.0673 85.4499 77.5407C85.7709 78.0142 85.5688 78.4344 84.9921 78.4758Z" fill="#C317C6"/>
<path d="M82.1327 80.9497C82.103 80.7958 82.0554 80.6597 81.9782 80.5413L78.7739 75.8423C78.7442 75.8008 78.7204 75.7653 78.7026 75.7357L78.5837 75.5582C78.554 75.5168 78.4826 75.428 78.4054 75.428C78.3281 75.428 78.2151 75.5108 78.12 75.7121L75.5994 80.9023C75.5162 81.0681 75.4746 81.2634 75.4568 81.4587C75.4508 81.5593 75.4568 81.6658 75.4627 81.7664C75.4805 81.9617 75.54 82.1393 75.6292 82.2635L79.0355 87.2585C79.0355 87.2585 79.0771 87.3236 79.1187 87.3532C79.1485 87.3769 79.1841 87.3946 79.2198 87.3946C79.2852 87.3887 79.3981 87.3118 79.4992 87.1106L82.0198 81.9203C82.0792 81.796 82.1208 81.654 82.1387 81.506C82.1506 81.4172 82.1565 81.3225 82.1565 81.2338C82.1565 81.1332 82.1446 81.0444 82.1327 80.9497ZM77.6207 81.7664C77.585 82.2103 77.3769 82.5535 77.1035 82.5713C76.83 82.589 76.5744 82.2813 76.4733 81.8493C76.4555 81.7664 76.4377 81.6776 76.4317 81.5829C76.4258 81.4883 76.4317 81.3936 76.4317 81.3107C76.4674 80.8668 76.6754 80.5354 76.9489 80.5117C77.2224 80.4881 77.472 80.7958 77.579 81.2278C77.5969 81.3107 77.6147 81.4054 77.6207 81.5001C77.6266 81.5889 77.6207 81.6776 77.6207 81.7664ZM79.3981 81.6303C79.3625 82.0742 79.1544 82.4174 78.8809 82.4411C78.6075 82.4648 78.3519 82.1511 78.2508 81.7191C78.233 81.6362 78.2151 81.5474 78.2092 81.4527C78.2032 81.3581 78.2092 81.2634 78.2092 81.1805C78.2449 80.7426 78.4529 80.4052 78.7264 80.3875C78.9998 80.3697 79.2495 80.6715 79.3565 81.1036C79.3744 81.1864 79.3922 81.2752 79.3981 81.3758C79.4041 81.4705 79.4041 81.5593 79.3981 81.6421V81.6303ZM81.1756 81.506C81.14 81.9499 80.9319 82.2931 80.6584 82.3109C80.385 82.3286 80.1293 82.0268 80.0283 81.5889C80.0104 81.506 79.9926 81.4172 79.9867 81.3225C79.9807 81.2278 79.9867 81.1332 79.9867 81.0503C80.0283 80.6123 80.2304 80.275 80.5039 80.2573C80.7773 80.2395 81.027 80.5413 81.134 80.9734C81.1518 81.0562 81.1697 81.145 81.1756 81.2456C81.1816 81.3403 81.1816 81.4291 81.1756 81.5119V81.506Z" fill="#C317C6"/>
<path d="M84.9921 78.4757C84.4215 78.5172 83.6902 78.168 83.3692 77.6945C83.0423 77.2211 83.2444 76.8009 83.821 76.7594C84.3917 76.718 85.1229 77.0672 85.4499 77.5407C85.7709 78.0141 85.5688 78.4343 84.9921 78.4757Z" fill="#EFEFEF"/>
<path d="M81.1756 81.2337C81.1816 81.3283 81.1816 81.4171 81.1756 81.5C81.1399 81.9438 80.9319 82.2871 80.6584 82.3049C80.385 82.3226 80.1293 82.0208 80.0283 81.5828C80.0104 81.5 79.9926 81.4112 79.9867 81.3165C79.9807 81.2218 79.9867 81.1271 79.9867 81.0443C80.0283 80.6063 80.2304 80.269 80.5039 80.2512C80.7773 80.2335 81.027 80.5353 81.134 80.9673C81.1518 81.0502 81.1697 81.139 81.1756 81.2396V81.2337Z" fill="#EFEFEF"/>
<path d="M77.6207 81.494C77.6266 81.5828 77.6207 81.6716 77.6207 81.7603C77.585 82.2042 77.3769 82.5475 77.1035 82.5652C76.83 82.583 76.5744 82.2752 76.4733 81.8432C76.4555 81.7603 76.4376 81.6716 76.4317 81.5769C76.4258 81.4822 76.4317 81.3875 76.4317 81.3046C76.4674 80.8608 76.6754 80.5293 76.9489 80.5057C77.2224 80.482 77.472 80.7898 77.579 81.2218C77.5969 81.3046 77.6147 81.3993 77.6207 81.494Z" fill="#EFEFEF"/>
<path d="M79.3981 81.364C79.4041 81.4587 79.4041 81.5474 79.3981 81.6303C79.3625 82.0742 79.1544 82.4174 78.8809 82.4411C78.6075 82.4648 78.3519 82.1511 78.2508 81.7191C78.233 81.6362 78.2151 81.5474 78.2092 81.4527C78.2032 81.3581 78.2092 81.2634 78.2092 81.1805C78.2448 80.7426 78.4529 80.4052 78.7264 80.3875C78.9998 80.3697 79.2495 80.6715 79.3565 81.1036C79.3744 81.1864 79.3922 81.2752 79.3981 81.3758V81.364Z" fill="#EFEFEF"/>
<path d="M82.8223 86.5542C82.3467 86.8738 81.8117 86.9152 81.6274 86.6371C81.4431 86.3648 81.675 85.8855 82.1506 85.5659C82.6261 85.2463 83.1612 85.2049 83.3454 85.4771C83.5357 85.7493 83.3038 86.2287 82.8283 86.5542H82.8223Z" fill="#EFEFEF"/>
<path d="M87.9289 83.1038C87.4533 83.4234 86.9182 83.4648 86.734 83.1866C86.5497 82.9144 86.7815 82.435 87.2571 82.1154C87.7327 81.7958 88.2677 81.7544 88.452 82.0267C88.6363 82.2989 88.4044 82.7783 87.9289 83.1038Z" fill="#EFEFEF"/>
<path d="M225.556 20.9387C225.556 20.9387 224.563 16.4171 224.563 16.4112L224.533 16.2929C224.42 15.7602 224.022 15.3282 223.499 15.1625L218.636 13.6237C218.083 13.4462 217.31 13.6415 216.829 14.0735L213.393 17.1865L213.22 17.3463C212.816 17.7132 212.638 18.2695 212.751 18.8022C212.751 18.8022 212.804 19.033 212.804 19.0448L213.797 23.5545C213.934 24.1759 214.457 24.7796 215.01 24.9571L219.647 26.4308C219.718 26.4545 219.789 26.4663 219.861 26.4722C219.879 26.4722 219.896 26.4722 219.926 26.4722C219.938 26.4722 219.968 26.4722 219.986 26.4722C220.021 26.4722 220.057 26.4722 220.093 26.4722C220.485 26.4722 220.907 26.3361 221.246 26.1053C221.317 26.0639 221.389 26.0165 221.448 25.9632L225.045 22.7023C225.473 22.3176 225.693 21.5482 225.556 20.9268V20.9387ZM213.904 17.7369L217.34 14.6239C217.554 14.4286 217.899 14.3043 218.178 14.3043C218.262 14.3043 218.333 14.3162 218.404 14.3398L223.041 15.8076C223.077 15.8194 223.172 15.8549 223.184 15.92C223.196 15.9733 223.16 16.0798 223.029 16.1982L219.593 19.3111C219.314 19.5597 218.832 19.6899 218.535 19.6011L213.898 18.1275C213.863 18.1157 213.767 18.0802 213.756 18.0151C213.744 17.9618 213.779 17.8612 213.91 17.7369H213.904ZM220.057 25.6969C220.057 25.6969 220.003 25.7206 219.974 25.7206C219.938 25.7206 219.896 25.7088 219.873 25.7028L215.236 24.2351C215.117 24.1996 214.992 24.1108 214.885 23.9984C214.826 23.9392 214.778 23.8741 214.725 23.809C214.635 23.6788 214.564 23.5308 214.534 23.3888L213.541 18.8673C213.506 18.6897 213.541 18.5891 213.577 18.5477C213.595 18.5299 213.625 18.524 213.654 18.524C213.696 18.524 213.738 18.5359 213.761 18.5418L218.398 20.0095C218.499 20.0391 218.595 20.1042 218.69 20.187C218.743 20.2344 218.797 20.2936 218.844 20.3528C218.892 20.4119 218.933 20.477 218.969 20.5421C219.029 20.6427 219.076 20.7493 219.094 20.8558L220.087 25.3773C220.122 25.5549 220.087 25.6555 220.051 25.6969H220.057ZM224.795 21.6548C224.771 21.7435 224.747 21.8264 224.712 21.8974C224.664 22.0039 224.605 22.0927 224.533 22.1519L220.937 25.4128C220.937 25.4128 220.895 25.4484 220.865 25.4661C220.836 25.4839 220.8 25.4957 220.77 25.4839C220.717 25.4661 220.645 25.3833 220.604 25.2057L219.611 20.6842C219.593 20.5954 219.587 20.5007 219.587 20.4001C219.587 20.3291 219.599 20.2581 219.617 20.187C219.629 20.116 219.653 20.045 219.676 19.974C219.73 19.832 219.801 19.7077 219.891 19.6307L223.327 16.5118L223.487 16.3698C223.487 16.3698 223.576 16.2988 223.63 16.2988C223.636 16.2988 223.648 16.2988 223.659 16.2988C223.707 16.3165 223.784 16.3994 223.826 16.5769L223.85 16.6835L224.819 21.0985C224.854 21.2701 224.848 21.4713 224.801 21.6548H224.795Z" fill="#C317C6"/>
<path d="M220.093 25.3775L219.1 20.856C219.076 20.7494 219.029 20.6429 218.975 20.5423C218.939 20.4772 218.898 20.4121 218.85 20.3529C218.803 20.2937 218.749 20.2405 218.696 20.1872C218.6 20.1043 218.505 20.0392 218.404 20.0096L213.767 18.5419C213.767 18.5419 213.702 18.5242 213.66 18.5242C213.631 18.5242 213.601 18.5301 213.583 18.5478C213.541 18.5834 213.512 18.6899 213.547 18.8674L214.54 23.389C214.57 23.531 214.641 23.679 214.73 23.8092C214.778 23.8802 214.832 23.9453 214.891 23.9985C214.998 24.111 215.123 24.1938 215.242 24.2353L219.879 25.703C219.879 25.703 219.938 25.7207 219.98 25.7207C220.015 25.7207 220.045 25.7207 220.063 25.6971C220.104 25.6616 220.134 25.555 220.099 25.3775H220.093ZM214.439 19.8262C214.356 19.4593 214.582 19.258 214.939 19.3705C215.295 19.4829 215.652 19.8735 215.735 20.2345C215.812 20.6015 215.592 20.8027 215.23 20.6902C214.873 20.5778 214.516 20.1872 214.439 19.8262ZM214.808 21.4892C214.73 21.1223 214.95 20.9211 215.313 21.0335C215.67 21.1459 216.026 21.5366 216.104 21.8976C216.187 22.2645 215.961 22.4657 215.604 22.3533C215.248 22.2408 214.891 21.8502 214.808 21.4892ZM215.967 24.0163C215.783 23.9571 215.598 23.821 215.45 23.6553C215.402 23.602 215.361 23.5428 215.319 23.4836C215.277 23.4185 215.242 23.3475 215.212 23.2824C215.194 23.241 215.182 23.1937 215.17 23.1522C215.093 22.7853 215.313 22.5841 215.676 22.6965C215.717 22.7084 215.759 22.7261 215.806 22.7498C215.872 22.7853 215.937 22.8267 215.997 22.8741C216.056 22.9155 216.11 22.9688 216.163 23.022C216.318 23.1818 216.437 23.3771 216.478 23.5665C216.555 23.9334 216.336 24.1347 215.973 24.0222L215.967 24.0163ZM217.168 20.6902C217.091 20.3233 217.31 20.1221 217.673 20.2345C217.857 20.2937 218.042 20.4239 218.184 20.5896C218.232 20.6429 218.279 20.7021 218.315 20.7613C218.357 20.8264 218.392 20.8915 218.422 20.9625C218.44 21.0098 218.458 21.0572 218.464 21.0986C218.541 21.4655 218.321 21.6668 217.958 21.5543C217.917 21.5425 217.869 21.5188 217.822 21.501C217.756 21.4655 217.691 21.4241 217.631 21.3768C217.572 21.3353 217.519 21.2821 217.465 21.2288C217.316 21.069 217.198 20.8737 217.156 20.6843L217.168 20.6902ZM217.53 22.3533C217.447 21.9863 217.673 21.7851 218.03 21.8976C218.386 22.01 218.743 22.4006 218.826 22.7616C218.904 23.1286 218.684 23.3298 218.321 23.2173C217.964 23.1049 217.608 22.7143 217.53 22.3533ZM218.69 24.8804C218.333 24.7679 217.976 24.3773 217.893 24.0163C217.816 23.6494 218.036 23.4481 218.398 23.5606C218.755 23.673 219.112 24.0636 219.189 24.4246C219.272 24.7916 219.046 24.9928 218.69 24.8804Z" fill="#C317C6"/>
<path d="M224.813 21.0985L223.844 16.6835L223.82 16.577C223.778 16.3994 223.707 16.3166 223.654 16.2988C223.648 16.2988 223.636 16.2988 223.624 16.2988C223.57 16.2988 223.505 16.3462 223.481 16.3698L223.321 16.5119L219.885 19.6308C219.795 19.7136 219.718 19.8379 219.671 19.974C219.641 20.0451 219.623 20.1102 219.611 20.1871C219.599 20.2581 219.587 20.3291 219.581 20.4002C219.581 20.5008 219.581 20.5955 219.605 20.6842L220.598 25.2058C220.634 25.3833 220.711 25.4662 220.764 25.4839C220.794 25.4958 220.83 25.4839 220.859 25.4662C220.889 25.4484 220.919 25.4247 220.931 25.4129L224.527 22.152C224.599 22.0869 224.658 21.9981 224.706 21.8975C224.741 21.8205 224.771 21.7377 224.789 21.6548C224.831 21.4714 224.842 21.2701 224.807 21.0985H224.813ZM220.515 21.3234C220.307 21.2583 220.206 20.9506 220.265 20.5955C220.271 20.5244 220.289 20.4593 220.313 20.3824C220.336 20.3114 220.366 20.2463 220.396 20.1812C220.556 19.8675 220.812 19.6722 221.02 19.7432C221.228 19.8083 221.329 20.1102 221.276 20.4593C221.264 20.5304 221.246 20.6014 221.228 20.6783C221.204 20.7493 221.175 20.8144 221.145 20.8795C220.984 21.1991 220.729 21.3944 220.515 21.3234ZM221.834 23.4658C221.698 23.9038 221.377 24.1938 221.121 24.1109C220.871 24.034 220.776 23.6138 220.913 23.1758C221.05 22.7379 221.371 22.4479 221.626 22.5307C221.876 22.6136 221.971 23.0279 221.834 23.4658ZM222.631 19.4118C222.375 19.329 222.286 18.9088 222.423 18.4767C222.56 18.0388 222.881 17.7488 223.136 17.8316C223.392 17.9086 223.481 18.3288 223.344 18.7667C223.208 19.2047 222.887 19.4947 222.637 19.4118H222.631ZM223.998 21.3293C223.986 21.4003 223.975 21.4714 223.951 21.5483C223.927 21.6193 223.903 21.6844 223.868 21.7495C223.707 22.0691 223.451 22.2644 223.243 22.1934C223.029 22.1283 222.934 21.8205 222.988 21.4654C223 21.3944 223.011 21.3293 223.035 21.2524C223.059 21.1814 223.089 21.1163 223.118 21.0512C223.279 20.7375 223.535 20.5422 223.743 20.6132C223.951 20.6783 224.052 20.9801 223.998 21.3293Z" fill="#C317C6"/>
<path d="M223.041 15.8077L218.404 14.34C218.333 14.3163 218.262 14.3044 218.178 14.3044C217.899 14.3044 217.554 14.4287 217.34 14.624L213.904 17.737C213.767 17.8613 213.738 17.9619 213.75 18.0152C213.761 18.0803 213.857 18.1158 213.892 18.1276L218.529 19.6013C218.826 19.696 219.314 19.5658 219.587 19.3113L223.023 16.1983C223.16 16.0799 223.19 15.9734 223.178 15.9201C223.166 15.855 223.071 15.8195 223.035 15.8077H223.041ZM216.151 17.9619C215.699 18.0625 215.289 17.9264 215.236 17.6719C215.176 17.4115 215.497 17.1215 215.949 17.0268C216.401 16.9262 216.805 17.0623 216.865 17.3168C216.924 17.5713 216.603 17.8613 216.157 17.9619H216.151ZM220.99 16.9085C220.538 17.0091 220.128 16.8789 220.075 16.6185C220.021 16.3581 220.336 16.0681 220.788 15.9734C221.24 15.8728 221.65 16.0089 221.704 16.2634C221.763 16.5238 221.442 16.8138 220.996 16.9085H220.99Z" fill="#C317C6"/>
<path d="M215.967 24.0162C215.783 23.957 215.598 23.8209 215.45 23.6552C215.402 23.6019 215.361 23.5427 215.319 23.4836C215.277 23.4185 215.242 23.3474 215.212 23.2823C215.194 23.2409 215.182 23.1936 215.17 23.1521C215.093 22.7852 215.313 22.584 215.676 22.6964C215.717 22.7083 215.759 22.726 215.806 22.7497C215.872 22.7852 215.937 22.8266 215.997 22.874C216.056 22.9154 216.11 22.9687 216.163 23.0219C216.318 23.1817 216.437 23.377 216.478 23.5664C216.555 23.9333 216.336 24.1346 215.973 24.0221L215.967 24.0162Z" fill="#EFEFEF"/>
<path d="M215.236 20.69C214.879 20.5776 214.522 20.187 214.445 19.826C214.362 19.459 214.588 19.2578 214.944 19.3703C215.301 19.4827 215.658 19.8733 215.741 20.2343C215.818 20.6012 215.598 20.8025 215.236 20.69Z" fill="#EFEFEF"/>
<path d="M215.598 22.3531C215.242 22.2407 214.885 21.8501 214.802 21.489C214.725 21.1221 214.944 20.9209 215.307 21.0333C215.664 21.1458 216.02 21.5364 216.098 21.8974C216.181 22.2643 215.955 22.4656 215.598 22.3531Z" fill="#EFEFEF"/>
<path d="M218.69 24.8802C218.333 24.7678 217.976 24.3772 217.893 24.0161C217.816 23.6492 218.036 23.448 218.398 23.5604C218.755 23.6729 219.112 24.0635 219.189 24.4245C219.272 24.7914 219.046 24.9927 218.69 24.8802Z" fill="#EFEFEF"/>
<path d="M217.958 21.5541C217.917 21.5423 217.869 21.5186 217.822 21.5008C217.756 21.4653 217.691 21.4239 217.632 21.3765C217.572 21.3351 217.519 21.2819 217.465 21.2286C217.316 21.0688 217.198 20.8735 217.156 20.6841C217.079 20.3172 217.299 20.116 217.661 20.2284C217.846 20.2876 218.03 20.4178 218.172 20.5835C218.22 20.6368 218.268 20.696 218.303 20.7551C218.345 20.8202 218.381 20.8853 218.41 20.9564C218.428 21.0037 218.446 21.051 218.452 21.0925C218.529 21.4594 218.309 21.6606 217.947 21.5482L217.958 21.5541Z" fill="#EFEFEF"/>
<path d="M218.327 23.2171C217.97 23.1047 217.614 22.7141 217.536 22.3531C217.453 21.9861 217.679 21.7849 218.036 21.8974C218.392 22.0098 218.749 22.4004 218.832 22.7614C218.91 23.1283 218.69 23.3296 218.327 23.2171Z" fill="#EFEFEF"/>
<path d="M216.151 17.9618C215.699 18.0624 215.289 17.9263 215.236 17.6718C215.176 17.4114 215.497 17.1214 215.949 17.0267C216.401 16.9261 216.805 17.0622 216.865 17.3167C216.924 17.5712 216.603 17.8612 216.157 17.9618H216.151Z" fill="#EFEFEF"/>
<path d="M220.99 16.9083C220.538 17.0089 220.128 16.8787 220.075 16.6183C220.021 16.3579 220.336 16.0679 220.788 15.9732C221.24 15.8726 221.65 16.0088 221.704 16.2632C221.763 16.5236 221.442 16.8136 220.996 16.9083H220.99Z" fill="#EFEFEF"/>
<path d="M221.276 20.4653C221.264 20.5363 221.246 20.6073 221.228 20.6843C221.204 20.7553 221.175 20.8204 221.145 20.8855C220.984 21.2051 220.729 21.4004 220.515 21.3294C220.307 21.2643 220.206 20.9565 220.265 20.6014C220.271 20.5304 220.289 20.4653 220.313 20.3884C220.336 20.3173 220.366 20.2522 220.396 20.1871C220.556 19.8735 220.812 19.6782 221.02 19.7492C221.228 19.8143 221.329 20.1161 221.276 20.4653Z" fill="#EFEFEF"/>
<path d="M223.998 21.3293C223.986 21.4003 223.975 21.4714 223.951 21.5483C223.927 21.6193 223.903 21.6844 223.868 21.7495C223.707 22.0691 223.451 22.2644 223.243 22.1934C223.029 22.1283 222.934 21.8205 222.988 21.4654C223 21.3944 223.011 21.3293 223.035 21.2524C223.059 21.1814 223.089 21.1163 223.119 21.0512C223.279 20.7375 223.535 20.5422 223.743 20.6132C223.951 20.6783 224.052 20.9801 223.998 21.3293Z" fill="#EFEFEF"/>
<path d="M221.834 23.4658C221.698 23.9038 221.377 24.1938 221.121 24.1109C220.871 24.034 220.776 23.6138 220.913 23.1758C221.05 22.7379 221.371 22.4479 221.626 22.5307C221.876 22.6136 221.971 23.0279 221.834 23.4658Z" fill="#EFEFEF"/>
<path d="M223.338 18.7607C223.202 19.1987 222.881 19.4887 222.631 19.4058C222.375 19.323 222.286 18.9028 222.423 18.4707C222.56 18.0328 222.881 17.7428 223.136 17.8257C223.392 17.9026 223.481 18.3228 223.344 18.7607H223.338Z" fill="#EFEFEF"/>
<path fill-rule="evenodd" clip-rule="evenodd" d="M183.318 3.81723L181.951 3.906L168.522 7.85938L166.958 10.8126L176.648 17.4292L198.799 13.9848L202.49 8.81222L196.539 5.50393L185.934 3.73438L183.318 3.81723Z" fill="#EFEFEF"/>
<path fill-rule="evenodd" clip-rule="evenodd" d="M202.972 11.138C203.4 10.5521 203.62 9.93069 203.596 9.27968C203.525 7.22606 201.093 5.64589 197.235 4.74632C194.263 4.05388 190.303 3.67512 185.934 3.7343L185.672 2.69269C185.964 2.39086 186.142 1.9825 186.124 1.53272C186.095 0.656818 185.357 -0.0237789 184.478 0.00581225C183.598 0.0354034 182.914 0.769264 182.944 1.64516C182.962 2.11862 183.188 2.5329 183.532 2.81105L183.372 3.81715C183.372 3.81715 183.336 3.81715 183.324 3.81715L183.087 5.30855L179.151 6.47444L179.121 6.55138L178.806 6.57505L178.693 7.29116L182.777 7.53972L182.748 7.70543C180.197 7.90665 177.915 8.2795 176.161 8.75888C173.694 9.43356 172.184 10.3805 172.225 11.4458C172.237 11.7002 172.332 11.9488 172.517 12.1737C170.24 11.6174 168.843 11.0256 168.825 10.5107C168.807 9.9662 170.305 9.22642 172.749 8.46888C174.134 8.04277 175.78 7.66992 177.605 7.37993L177.516 6.41526L180.055 5.70507L181.796 4.88244L181.957 3.90001C178.039 4.19 174.532 4.81734 171.869 5.64589C168.082 6.8177 165.775 8.56949 165.847 10.6231C165.865 11.1913 166.073 11.7239 166.435 12.2151L167.244 15.4938C167.208 15.6832 167.184 15.8726 167.19 16.0679C167.262 18.0387 169.556 19.5478 173.206 20.3941C176.292 21.1102 180.512 21.4712 185.126 21.3114C189.745 21.1457 193.924 20.4829 196.95 19.5478C200.534 18.4411 202.71 16.7722 202.639 14.8014C202.633 14.612 202.603 14.4285 202.556 14.2451L202.966 11.138H202.972ZM173.397 11.0374L174.752 11.5109C174.615 11.6884 174.55 11.8719 174.556 12.0612C174.556 12.1855 174.597 12.3039 174.663 12.4163C173.753 12.1145 173.224 11.7713 173.212 11.4221C173.212 11.2978 173.272 11.1676 173.397 11.0374ZM195.731 11.6647C195.79 11.5464 195.82 11.4221 195.814 11.2978C195.808 11.0966 195.719 10.9072 195.553 10.7356L196.866 10.1674C197.015 10.2976 197.098 10.4278 197.104 10.5639C197.116 10.9131 196.617 11.2919 195.731 11.6588V11.6647ZM194.572 10.1378C194.144 9.9662 193.621 9.82416 193.014 9.70579L193.389 9.03112C193.52 9.05479 193.662 9.07846 193.787 9.10214C194.358 9.21458 194.863 9.33886 195.297 9.46315L194.566 10.1378H194.572ZM191.748 9.51641C191.261 9.45723 190.737 9.40988 190.185 9.36846L190.327 8.65827C190.904 8.6997 191.469 8.75296 191.992 8.81806L191.754 9.51641H191.748ZM188.924 9.29744C188.407 9.27968 187.866 9.26193 187.307 9.26193L187.129 8.5399C187.771 8.5399 188.395 8.55766 189.002 8.58133L188.924 9.29744ZM178.396 10.0076L178.111 9.33295C178.628 9.23234 179.181 9.13764 179.757 9.04887L179.948 9.74722C179.395 9.83008 178.878 9.91293 178.402 10.0135L178.396 10.0076ZM178.081 11.0788C178.783 10.9249 179.591 10.7829 180.477 10.6645C180.405 10.7296 180.37 10.7947 180.37 10.8598C180.388 11.3511 182.54 11.6766 185.179 11.5819C187.819 11.4872 189.947 11.0137 189.929 10.5225C189.929 10.4574 189.881 10.3923 189.81 10.3331C190.708 10.3864 191.522 10.4692 192.23 10.5758C193.823 10.8125 194.816 11.0847 194.821 11.3333C194.827 11.5819 193.864 11.9251 192.289 12.2743C190.5 12.6767 188.009 12.9727 185.233 13.0733C182.456 13.1739 179.954 13.0555 178.14 12.7833C176.547 12.5465 175.554 12.2743 175.549 12.0257C175.543 11.7772 176.506 11.4339 178.081 11.0847V11.0788ZM200.624 9.38621C200.641 9.82416 199.672 10.3864 198.02 10.9841C198.073 10.8362 198.103 10.6882 198.097 10.5343C198.061 9.46906 196.486 8.62868 193.977 8.13155C192.087 7.7587 189.62 7.54564 186.885 7.55156L186.855 7.42728L191.201 6.84729C193.216 7.00708 195.03 7.2734 196.557 7.62258C199.048 8.20256 200.6 8.8299 200.618 9.37437L200.624 9.38621ZM182.468 9.45723C182.028 9.49274 181.6 9.53417 181.19 9.58151L181.065 8.87132C181.559 8.81214 182.064 8.75888 182.587 8.71745L182.468 9.45723ZM176.422 9.72355C176.523 9.69396 176.631 9.67028 176.732 9.64661L177.16 10.2976C176.565 10.4633 176.06 10.6468 175.656 10.848L174.877 10.2207C175.317 10.055 175.84 9.88334 176.428 9.72355H176.422Z" fill="#C317C6"/>
<path d="M146.455 27.6617C150.224 27.6617 153.28 24.6199 153.28 20.8676C153.28 17.1153 150.224 14.0735 146.455 14.0735C142.686 14.0735 139.63 17.1153 139.63 20.8676C139.63 24.6199 142.686 27.6617 146.455 27.6617Z" fill="#EFEFEF"/>
<path d="M153.499 19.2579C152.608 15.3874 148.726 12.9609 144.838 13.8486C140.95 14.7364 138.513 18.601 139.404 22.4715C140.296 26.342 144.178 28.7685 148.066 27.8808C151.954 26.993 154.391 23.1284 153.499 19.2579ZM149.564 26.5432L148.892 25.3537C149.695 24.9216 150.355 24.2884 150.824 23.5309L151.978 24.2647C151.395 25.2057 150.569 25.9988 149.564 26.5432ZM151.05 18.6069L152.287 18.0269C152.501 18.4649 152.673 18.9324 152.786 19.4295C152.899 19.9267 152.953 20.4179 152.947 20.9091L151.579 20.9209C151.579 20.5303 151.544 20.1338 151.449 19.7373C151.353 19.3408 151.223 18.9679 151.044 18.6128L151.05 18.6069ZM146.77 14.4049C147.911 14.4641 148.999 14.8192 149.939 15.411L149.219 16.571C148.47 16.0916 147.596 15.8076 146.687 15.7661L146.77 14.4049ZM150.83 19.8675C151.383 22.2703 149.867 24.6731 147.454 25.2235C145.04 25.7739 142.627 24.2647 142.074 21.8619C141.521 19.4591 143.037 17.0563 145.45 16.5059C147.864 15.9555 150.277 17.4647 150.83 19.8675ZM143.34 15.1862L144.012 16.3757C143.209 16.8078 142.549 17.441 142.08 18.1985L140.926 17.4647C141.509 16.5237 142.335 15.7306 143.34 15.1862ZM140.617 23.7084C140.403 23.2705 140.231 22.8029 140.118 22.3058C140.005 21.8087 139.951 21.3174 139.957 20.8262L141.325 20.8144C141.325 21.205 141.36 21.6015 141.455 21.998C141.551 22.3946 141.681 22.7674 141.86 23.1225L140.623 23.7025L140.617 23.7084ZM146.134 27.3244C144.993 27.2653 143.905 26.9102 142.965 26.3184L143.685 25.1584C144.434 25.6378 145.308 25.9218 146.217 25.9633L146.134 27.3244Z" fill="#C317C6"/>
<path d="M145.539 16.8848L147.026 19.9563H150.45L147.365 21.4359V24.8448L145.878 21.7791H142.454L145.539 20.2937V16.8848Z" fill="#C317C6"/>
<path d="M153.601 82.0741C156.26 82.0741 158.416 79.9279 158.416 77.2803C158.416 74.6328 156.26 72.4866 153.601 72.4866C150.941 72.4866 148.785 74.6328 148.785 77.2803C148.785 79.9279 150.941 82.0741 153.601 82.0741Z" fill="#EFEFEF"/>
<path d="M158.511 78.665C159.278 75.9722 157.696 73.1552 154.992 72.3976C152.287 71.6401 149.457 73.2084 148.696 75.9012C147.935 78.594 149.511 81.4111 152.215 82.1686C154.92 82.9262 157.75 81.3578 158.511 78.665ZM153.595 81.8431L153.583 80.8844C154.225 80.8844 154.855 80.7187 155.396 80.405L155.86 81.2454C155.176 81.6301 154.397 81.8431 153.595 81.8431ZM157.215 77.4281L158.178 77.4814C158.16 77.8246 158.107 78.1738 158.012 78.5171C157.916 78.8603 157.78 79.1858 157.607 79.4877L156.757 79.032C156.894 78.7893 157.001 78.5289 157.078 78.2567C157.156 77.9844 157.197 77.7004 157.209 77.4281H157.215ZM155.996 73.3919C156.686 73.8121 157.239 74.398 157.613 75.0845L156.775 75.558C156.472 75.0076 156.032 74.54 155.479 74.2027L155.996 73.3919ZM156.65 78.1383C156.175 79.8132 154.421 80.7897 152.739 80.3162C151.056 79.8428 150.075 78.0969 150.551 76.422C151.026 74.7472 152.78 73.7707 154.463 74.2441C156.145 74.7176 157.126 76.4634 156.65 78.1383ZM153.606 72.7172L153.618 73.676C152.976 73.676 152.346 73.8417 151.805 74.1553L151.342 73.3149C152.025 72.9303 152.804 72.7172 153.606 72.7172ZM149.023 77.073C149.041 76.7298 149.094 76.3806 149.19 76.0373C149.285 75.6941 149.421 75.3686 149.594 75.0667L150.444 75.5224C150.307 75.7651 150.2 76.0196 150.123 76.2977C150.046 76.5759 150.004 76.8541 149.992 77.1263L149.029 77.073H149.023ZM151.205 81.1744C150.515 80.7542 149.962 80.1683 149.588 79.4817L150.426 79.0083C150.729 79.5587 151.169 80.0262 151.722 80.3636L151.205 81.1744Z" fill="#C317C6"/>
<path d="M154.391 74.5105L154.266 76.9133L156.389 78.0674L153.975 77.9431L152.816 80.0559L152.935 77.6531L150.818 76.499L153.232 76.6174L154.391 74.5105Z" fill="#C317C6"/>
</g>
<defs>
<clipPath id="clip0_3_158">
<rect width="283" height="98" fill="white"/>
</clipPath>
</defs>
</svg>
