<svg xmlns="http://www.w3.org/2000/svg" width="155" height="58" viewBox="0 0 155 58" fill="none">
  <path d="M20.1485 23.9651C20.1228 24.7604 19.9689 26.9668 18.0961 28.5317C16.0693 30.2249 12.6316 30.6098 10.143 30.6098C9.19379 30.6098 8.2189 30.5841 7.26967 30.4815C5.3199 30.2506 3.08792 29.7631 1.88213 27.9416C1.13814 26.7872 1.06118 25.5814 1.03552 24.196H7.4236C7.4236 24.4013 7.34664 25.3248 7.96236 25.8636C8.29587 26.1715 9.09117 26.4793 10.1687 26.4793C10.3483 26.4793 11.7593 26.4537 12.5802 25.8379C13.5295 25.1196 13.4269 23.7342 13.4269 23.4777C13.4269 22.7337 13.4525 22.0154 13.4525 21.297C13.1447 21.7845 13.119 21.8358 12.8368 22.041C11.7849 22.8876 10.1687 23.0929 8.88593 23.0929C7.01312 23.0929 5.42252 22.7337 3.90887 21.5792C2.62613 20.5787 0.958557 18.5006 0.958557 14.5754C0.958557 13.7288 1.03552 10.3424 3.21619 8.03341C4.75549 6.3915 7.11574 5.77578 9.29641 5.80143C9.80951 5.80143 11.7849 5.80143 13.2473 6.95591C13.5551 7.1868 13.7347 7.36638 14.1708 7.95645L14.1452 6.28888H20.2254L20.1998 22.9646C20.1998 23.3238 20.1998 23.6316 20.1485 23.9651ZM11.8876 10.9581C11.6823 10.8555 11.2462 10.6502 10.6305 10.6759C10.1943 10.6759 9.73255 10.7785 9.37338 10.9581C8.37283 11.4455 7.70581 12.5487 7.70581 14.7807C7.70581 16.2686 8.03932 17.1922 8.47545 17.6797C8.70635 17.9619 8.98855 18.1158 9.32207 18.2697C9.45034 18.3467 9.93778 18.475 10.4509 18.475C10.7331 18.475 11.1949 18.475 11.7849 18.1928C13.196 17.577 13.3499 15.8325 13.3499 14.4985C13.3499 13.2414 13.2216 11.6251 11.8876 10.9581ZM33.6943 23.9908V22.6311C33.4121 22.8363 33.0785 23.1185 32.3859 23.452C31.6419 23.8369 30.0256 24.4013 27.8193 24.4013C27.3831 24.4013 26.1774 24.4013 24.9972 23.9651C22.7139 23.0672 21.4825 21.0918 21.4825 18.7059C21.4825 17.7566 21.6877 15.6273 23.9197 14.1393C25.3821 13.1644 27.2549 12.9079 28.9737 12.677C29.9743 12.5487 31.0261 12.3948 32.001 12.2152C32.4372 12.1125 32.9246 12.0099 33.3607 11.8817C33.3607 11.8047 33.3607 11.3429 33.2581 11.0607C33.0529 10.3424 32.5398 9.82926 30.9748 9.82926C30.4617 9.82926 30.1282 9.90623 29.9486 9.93188C28.8455 10.2141 28.7429 11.112 28.6402 11.4968L22.0469 11.6508C22.1239 11.2659 22.2265 10.9324 22.2778 10.5989C22.4574 9.90622 22.8166 8.70044 24.2276 7.59728C25.6386 6.51977 27.768 5.75012 31.5906 5.77578C34.3613 5.77578 38.1069 6.23757 39.4666 9.08527C39.8514 9.88057 39.9797 10.5733 39.9797 12.2152L39.9541 21.8358C39.9541 23.1185 40.1336 23.4007 40.5698 24.0164L33.6943 23.9908ZM30.667 16.6022C29.923 16.7817 28.8455 17.0126 28.3067 17.6797C28.2298 17.7823 27.9989 18.0901 27.9989 18.5006C27.9989 19.0394 28.435 19.8603 29.7434 19.8603C30.3591 19.8603 30.8979 19.6551 31.4623 19.3729C33.4377 18.321 33.3351 16.5765 33.3351 15.7555C32.4372 16.0891 31.5649 16.3456 30.667 16.6022ZM73.1515 24.0678L73.1772 12.9079C73.1772 11.8047 73.1772 10.8555 72.8437 9.82926C71.9971 7.23811 69.7907 6.49412 68.8928 6.23757C67.841 5.92971 67.02 5.95537 66.5839 5.95537C63.7105 5.90406 62.2482 7.03287 61.4272 7.87949C61.1963 8.11038 60.8115 8.4952 60.5037 9.21354C60.1188 8.52086 59.8879 8.11038 59.6314 7.85383C57.9382 5.92971 54.9879 5.92971 54.3721 5.92971C51.9606 5.92971 50.4726 6.85329 49.7542 7.52032C49.472 7.80252 49.2155 8.13603 48.805 8.85437V6.34019H42.0065L41.9808 24.0164H49.0359L49.0616 14.4215C49.0616 13.8827 49.1642 13.5236 49.2411 13.3183C49.7286 11.856 51.1909 11.6764 51.6784 11.6764C52.2171 11.6764 53.6281 11.856 54.0386 13.344C54.1412 13.7545 54.1412 14.0367 54.1412 14.4471L54.0899 24.0164H61.1194L61.145 14.6011C61.145 14.1649 61.145 13.8058 61.2477 13.3953C61.6838 11.8303 63.1718 11.7021 63.7105 11.7021C66.3786 11.7021 66.1734 14.088 66.1734 14.7807L66.1478 24.0164L73.1515 24.0678ZM90.4943 23.4777C89.2885 24.196 87.9031 24.5295 86.4921 24.5295C84.6963 24.5295 83.4135 23.9395 82.7978 23.529C82.4899 23.2981 82.2847 23.0416 82.0538 22.785V24.0934H75.2553L75.2809 0.00341797H82.2847L82.3104 7.64859C82.6182 7.34073 82.8491 7.13549 83.2339 6.85329C84.2601 6.16061 85.5172 5.90405 86.7743 5.90405C88.955 5.90405 90.8021 6.6737 92.2645 8.26431C93.3163 9.41878 94.4708 11.3429 94.4708 14.8833C94.4965 15.8838 94.4195 21.0918 90.4943 23.4777ZM86.8256 11.933C86.2099 11.035 85.2607 10.9068 84.8759 10.9068C84.5937 10.9068 83.9523 10.9837 83.3879 11.4199C82.259 12.3434 82.1308 13.8827 82.1308 15.2168C82.1308 16.4482 82.259 18.0902 83.2852 18.9111C83.4905 19.0907 84.0549 19.4499 84.8502 19.4499C85.1581 19.4499 85.979 19.3472 86.6204 18.7059C87.2104 18.0901 87.5696 17.0126 87.5696 15.2168C87.5696 14.1136 87.467 12.8565 86.8256 11.933ZM102.757 24.0934L102.809 0.00341797H95.7535L95.7279 24.0934H102.757ZM104.887 4.69827V0.0290745H111.916V4.69827H104.887ZM104.835 24.1191L104.861 6.44281H111.89L111.865 24.1191H104.835ZM132.876 24.1447L132.902 12.9848C132.902 11.7277 132.799 11.112 132.671 10.5219C132.389 9.36747 131.824 8.213 130.901 7.44335C129.233 6.00667 127.053 5.98102 126.411 5.98102C124.615 5.98102 122.717 6.44281 121.434 7.75121C121.101 8.08473 121.024 8.16169 120.588 8.80306V6.44281H113.969L113.943 24.1191H120.947L120.972 14.7037C120.972 13.9597 120.947 11.8047 123.538 11.8047C125.128 11.8047 125.642 12.6513 125.821 13.267C125.924 13.6775 125.924 14.0623 125.924 14.4728L125.898 24.1191L132.876 24.1447ZM153.477 24.1704C153.451 24.9657 153.298 27.172 151.425 28.7369C149.424 30.4302 145.96 30.815 143.472 30.815C142.522 30.815 141.548 30.7893 140.598 30.6867C138.649 30.4558 136.391 29.9684 135.211 28.1469C134.467 26.9924 134.39 25.7866 134.364 24.4013H140.752C140.752 24.6065 140.675 25.5301 141.291 26.0688C141.625 26.3767 142.42 26.6846 143.497 26.6846C143.677 26.6846 145.088 26.6589 145.909 26.0432C146.858 25.3248 146.756 23.9395 146.756 23.6829C146.756 22.9389 146.781 22.2206 146.781 21.5023C146.473 21.9897 146.448 22.041 146.165 22.2463C145.114 23.0929 143.497 23.2981 142.215 23.2981C140.342 23.2981 138.726 22.9646 137.238 21.7845C135.955 20.7839 134.287 18.7059 134.287 14.7807C134.287 13.934 134.364 10.5476 136.545 8.23865C138.084 6.59674 140.444 5.98102 142.625 6.00668C143.138 6.00668 145.114 6.00668 146.576 7.16115C146.884 7.39204 147.063 7.57162 147.5 8.16169L147.474 6.49412H153.554L153.528 23.1698C153.528 23.529 153.528 23.8369 153.477 24.1704ZM145.216 11.1633C145.011 11.0607 144.575 10.8555 143.959 10.8811C143.523 10.8811 143.061 10.9837 142.702 11.1633C141.702 11.6508 141.035 12.7539 141.035 14.9859C141.035 16.4739 141.368 17.3975 141.804 17.8849C142.035 18.1671 142.317 18.321 142.651 18.475C142.779 18.5519 143.266 18.6802 143.78 18.6802C144.062 18.6802 144.524 18.6802 145.114 18.398C146.525 17.7823 146.679 16.0378 146.679 14.7037C146.679 13.4723 146.55 11.8303 145.216 11.1633ZM36.7985 50.7745C38.697 50.7745 40.6467 50.4667 41.2368 50.4154V45.6179C40.5441 45.7462 40.3902 45.7462 39.9797 45.7462C38.1326 45.7462 38.0299 44.6174 38.0299 43.899L38.1582 37.1005H41.2368V33.2779H38.2352L38.2865 27.7107H31.2314L31.1288 33.2522H28.6659V37.0748H31.0775L30.9492 45.6435C30.9492 46.2593 30.9748 46.9006 31.1544 47.542C31.6932 49.3379 33.0785 50.7489 36.7985 50.7745ZM69.5086 43.0011C69.5086 43.0011 69.5085 43.822 69.6625 44.3608C69.8934 45.0535 70.5861 46.3362 72.4589 46.3106C73.5364 46.3106 74.1264 45.9258 74.4599 45.6435C75.1783 45.0535 75.5118 44.2838 75.6657 44.0529L81.4124 46.4902C81.2328 46.7724 81.0276 47.1315 80.5658 47.6703C79.3344 49.107 77.9234 49.8766 77.3333 50.1845C76.4867 50.595 74.6395 51.3133 72.1254 51.3133C70.663 51.3133 69.252 51.1081 67.9436 50.5693C64.3006 49.0557 62.3508 45.5153 62.3765 41.667C62.3765 38.024 64.0697 35.7664 65.0702 34.7915C67.6101 32.3799 71.0992 32.2004 72.0997 32.2004C73.3055 32.2004 76.8972 32.3799 79.4627 35.1507C80.3093 36.0743 80.9506 37.2287 81.3355 38.4345C81.7973 39.9738 81.8486 41.4618 81.8486 43.0781L69.5086 43.0011ZM74.5369 38.3062C74.0751 36.8439 72.7667 36.6387 72.228 36.6387C71.6892 36.6643 71.33 36.8182 71.1248 36.9209C69.8164 37.4853 69.6625 38.922 69.5855 39.3068H74.6908C74.6652 39.1015 74.6652 38.7424 74.5369 38.3062ZM94.5221 38.4345C94.8556 38.4345 95.2148 38.4602 95.5483 38.5115V32.5852C93.7012 32.5852 92.2132 32.6365 90.6482 33.7397C90.2634 33.9706 90.0325 34.1758 89.699 34.4837V32.9444H82.9517L82.9261 50.6206H89.9042L89.9299 42.3084C89.9299 41.6927 89.9299 41.2052 90.1351 40.6408C90.9817 38.2293 93.9834 38.4089 94.5221 38.4345ZM107.734 50.6463V49.2866C107.452 49.4918 107.119 49.774 106.426 50.1075C105.682 50.4923 104.066 51.0567 101.859 51.0567C101.423 51.0567 100.217 51.0567 99.0374 50.6206C96.7541 49.7227 95.5227 47.7473 95.5227 45.3614C95.5227 44.4121 95.7279 42.2828 97.9599 40.7948C99.4222 39.7942 101.295 39.5633 103.014 39.3324C103.989 39.2042 105.066 39.0502 106.041 38.8706C106.477 38.768 106.965 38.6654 107.401 38.5371C107.401 38.4602 107.401 37.9984 107.298 37.7162C107.093 36.9978 106.58 36.4847 105.015 36.4847C104.502 36.4847 104.168 36.5617 103.989 36.5874C102.886 36.8696 102.783 37.7675 102.68 38.1523L96.0871 38.3062C96.164 37.9214 96.2666 37.5879 96.318 37.2544C96.4975 36.5617 96.8567 35.3559 98.2677 34.2528C99.6787 33.1753 101.808 32.4056 105.631 32.4313C108.401 32.4313 112.147 32.8931 113.507 35.7407C113.892 36.5361 114.02 37.2544 114.02 38.8706L113.994 48.4912C113.994 49.7996 114.174 50.0562 114.61 50.6719L107.734 50.6463ZM104.707 43.232C103.963 43.4116 102.911 43.6425 102.347 44.3095C102.27 44.4121 102.039 44.72 102.039 45.1304C102.039 45.6692 102.475 46.4902 103.784 46.4902C104.399 46.4902 104.938 46.2849 105.502 46.0027C107.478 44.9509 107.375 43.2063 107.375 42.3854C106.477 42.7189 105.605 43.0011 104.707 43.232ZM127.514 51.1081C127.001 51.1081 125.154 51.1081 123.692 50.1075C123.461 49.9279 123.307 49.7997 122.948 49.4661V57.06H116.047L116.072 32.97H122.922V34.3297C123.256 33.9192 123.41 33.791 123.615 33.637C124.256 33.1239 125.59 32.4826 127.617 32.4826C133.133 32.4826 135.313 36.9978 135.313 41.8979C135.313 46.9006 133.005 51.1337 127.514 51.1081ZM127.643 38.5884C127.027 37.7675 126.103 37.6392 125.77 37.6392C125.488 37.6392 124.949 37.6649 124.41 37.9727C122.973 38.7424 122.896 40.5382 122.896 41.9236C122.896 43.2833 122.999 45.1048 124.359 45.8488C124.898 46.1567 125.359 46.1566 125.59 46.1566C125.898 46.1566 126.386 46.131 126.95 45.7975C128.207 45.0022 128.387 43.309 128.387 42.0262C128.387 40.923 128.31 39.512 127.643 38.5884ZM154.939 33.047H147.653C147.628 33.2522 144.985 44.566 144.985 44.566L142.471 33.047H135.134L140.701 49.2866C140.983 50.0819 141.24 50.8258 141.24 51.0824C141.24 51.7238 140.752 51.929 139.777 51.929C139.085 51.929 138.443 51.852 137.776 51.8264V56.8291L139.726 57.0343C140.316 57.1113 140.932 57.06 141.496 57.06C143.241 57.06 144.601 57.0857 146.012 55.9825C147.346 54.8793 147.961 53.2887 148.5 51.7238L154.939 33.047ZM60.9655 36.7413C60.6832 35.2533 59.9906 34.3554 59.5288 33.9192C58.2717 32.6622 56.3219 32.1491 54.6287 32.1491C52.0632 32.1491 50.4726 33.1239 49.7799 33.791C49.549 34.0219 49.3694 34.2015 48.9846 34.6889L49.0103 26.505H42.0065L41.9808 50.595H48.9589L48.9846 37.9984H55.2187L55.1931 50.595H61.1194L61.145 39.0759C61.1707 38.178 61.145 37.6136 60.9655 36.7413Z" fill="#EFEFEF"/>
  <path d="M48.985 37.947L52.9358 39.3067L52.9102 48.6964L48.9593 50.5436L48.985 37.947Z" fill="#888888"/>
  <mask id="mask0_1_105" style="mask-type:luminance" maskUnits="userSpaceOnUse" x="22" y="50" width="27" height="8">
    <path d="M22.8403 57.5223L38.0024 57.548L48.957 50.5442H41.9789L22.8403 57.5223Z" fill="white"/>
  </mask>
  <g mask="url(#mask0_1_105)">
    <rect x="22.7684" y="50.3833" width="26.3373" height="7.28935" transform="rotate(0.0897734 22.7684 50.3833)" fill="url(#paint0_linear_1_105)"/>
  </g>
  <mask id="mask1_1_105" style="mask-type:luminance" maskUnits="userSpaceOnUse" x="54" y="50" width="15" height="8">
    <path d="M61.1438 50.5698H55.2175L54.5762 57.5736L68.6607 57.5993L61.1438 50.5698L61.1438 50.5442L61.1438 50.5698Z" fill="white"/>
  </mask>
  <g mask="url(#mask1_1_105)">
    <rect width="14.3663" height="7.28935" transform="matrix(0.999999 0.00156464 -0.00156697 0.999999 54.4518 50.4329)" fill="url(#paint1_linear_1_105)"/>
  </g>
  <defs>
    <linearGradient id="paint0_linear_1_105" x1="35.937" y1="50.3833" x2="35.937" y2="57.6726" gradientUnits="userSpaceOnUse">
      <stop stop-color="#888888"/>
      <stop offset="1" stop-color="white" stop-opacity="0"/>
    </linearGradient>
    <linearGradient id="paint1_linear_1_105" x1="7.18314" y1="0" x2="7.18314" y2="7.28935" gradientUnits="userSpaceOnUse">
      <stop stop-color="#888888"/>
      <stop offset="1" stop-color="white" stop-opacity="0"/>
    </linearGradient>
  </defs>
</svg>