<svg width="1440" height="102" viewBox="0 0 1440 102" fill="none" xmlns="http://www.w3.org/2000/svg">
<g clip-path="url(#clip0_3_1224)">
<path d="M1648.14 101.722L1624.01 89.3462L1600.22 101.731L1576.42 89.3462L1552.63 101.731L1528.83 89.3462L1505.04 101.731L1481.24 89.3462L1457.45 101.731L1433.65 89.3462L1409.85 101.731L1386.06 89.3462L1362.26 101.731L1338.48 89.3462L1314.67 101.731L1290.88 89.3462L1267.09 101.731L1243.29 89.3462L1219.49 101.731L1195.7 89.3462L1171.9 101.731L1148.11 89.3462L1124.31 101.731L1100.51 89.3462L1076.71 101.731L1052.91 89.3462L1029.12 101.731L1005.32 89.3462L981.524 101.731L957.728 89.3462L933.932 101.731L910.136 89.3462L886.34 101.731L862.544 89.3462L838.747 101.731L814.942 89.3462L791.146 101.731L767.35 89.3462L743.554 101.731L719.758 89.3462L695.962 101.731L672.157 89.3462L648.36 101.731L624.573 89.3462L600.768 101.731L576.981 89.3462L553.185 101.731L529.388 89.3462L505.592 101.731L481.796 89.3462L457.991 101.731L434.195 89.3462L410.399 101.731L386.603 89.3462L362.807 101.731L339.01 89.3462L315.205 101.731L291.409 89.3462L267.604 101.731L243.808 89.3462L220.012 101.731L196.207 89.3462L172.411 101.731L148.615 89.3462L124.818 101.731L101.013 89.3462L77.2173 101.731L53.4123 89.3462L29.6073 101.731L5.80231 89.3462L-18.0027 101.731L-41.4804 89.355L-48 94.2823L-35.6154 93.0262L-48 91.7612L-35.6154 90.505L-48 89.2488L-35.6154 88.0015L-48 86.7454L-35.6154 85.4892L-48 84.2331L-35.6154 82.9769L-48 81.7208L-35.6154 80.4646L-48 79.2085L-35.6154 77.9435L-48 76.6873L-35.6154 75.4312L-48 74.175L-35.6154 72.9188L-48 71.6627L-35.6154 70.4065L-48 69.1504L-35.6154 67.8854L-48 66.6292L-35.6154 65.3731L-48 64.1169L-35.6154 62.8608L-48 61.5958L-35.6154 60.3396L-48 59.0835L-35.6154 57.8273L-48 56.5712L-35.6154 55.3062L-48 54.05L-35.6154 52.7938L-48 51.5377L-35.6154 50.2815L-48 49.0254L-35.6154 47.7692L-48 46.5131L-35.6154 45.2569L-48 44.0008L-35.6154 42.7446L-48 41.4796L-35.6154 40.2235L-48 38.9673L-35.6154 37.7112L-48 36.455L-35.6154 35.1988L-48 33.9427L-35.6154 32.6777L-48 31.4215L-35.6154 30.1654L-48 28.9004L-35.6154 27.6442L-48 26.3881L-35.6154 25.1231L-48 23.8581L-35.6154 22.6019L-48 21.3369L-35.6154 20.0808L-48 18.8158L-35.6154 17.5596L-48 16.3035L-35.6154 15.0385L-48 13.7823L-35.6154 12.5173L-48 11.2523L-35.6154 9.98731L-48 8.72231L-35.6154 7.45731L-42.135 0L-18.0115 12.3846L5.78461 0L29.5808 12.3846L53.3681 0L77.1731 12.3846L100.96 0L124.757 12.3846L148.553 0L172.349 12.3846L196.145 0L219.941 12.3846L243.737 0L267.525 12.3846L291.33 0L315.117 12.3846L338.913 0L362.709 12.3846L386.505 0L410.302 12.3846L434.098 0L457.894 12.3846L481.69 0L505.486 12.3846L529.291 0L553.087 12.3846L576.883 0L600.68 12.3846L624.476 0L648.272 12.3846L672.068 0L695.864 12.3846L719.66 0L743.457 12.3846L767.253 0L791.058 12.3846L814.854 0L838.65 12.3846L862.446 0L886.242 12.3846L910.038 0L933.843 12.3846L957.64 0L981.427 12.3846L1005.23 0L1029.02 12.3846L1052.82 0L1076.61 12.3846L1100.41 0L1124.2 12.3846L1148.01 0L1171.81 12.3846L1195.6 0L1219.4 12.3846L1243.19 0L1266.99 12.3846L1290.79 0L1314.59 12.3846L1338.4 0L1362.19 12.3846L1385.99 0L1409.79 12.3846L1433.59 0L1457.39 12.3846L1481.18 0L1504.99 12.3846L1528.78 0L1552.59 12.3846L1576.39 0L1600.2 12.3846L1624 0L1647.48 12.3758L1654 7.44846L1641.62 8.70462L1654 9.96962L1641.62 11.2258L1654 12.4819L1641.62 13.7292L1654 14.9854L1641.62 16.2415L1654 17.4977L1641.62 18.7538L1654 20.01L1641.62 21.2662L1654 22.5223L1641.62 23.7873L1654 25.0435L1641.62 26.2996L1654 27.5558L1641.62 28.8119L1654 30.0681L1641.62 31.3242L1654 32.5804L1641.62 33.8454L1654 35.1015L1641.62 36.3577L1654 37.6138L1641.62 38.87L1654 40.135L1641.62 41.3912L1654 42.6473L1641.62 43.9035L1654 45.1596L1641.62 46.4246L1654 47.6808L1641.62 48.9369L1654 50.1931L1641.62 51.4492L1654 52.7054L1641.62 53.9615L1654 55.2177L1641.62 56.4738L1654 57.73L1641.62 58.9862L1654 60.2512L1641.62 61.5073L1654 62.7635L1641.62 64.0196L1654 65.2758L1641.62 66.5319L1654 67.7881L1641.62 69.0531L1654 70.3092L1641.62 71.5654L1654 72.8304L1641.62 74.0865L1654 75.3427L1641.62 76.6077L1654 77.8727L1641.62 79.1288L1654 80.3938L1641.62 81.65L1654 82.915L1641.62 84.1712L1654 85.4273L1641.62 86.6923L1654 87.9485L1641.62 89.2135L1654 90.4785L1641.62 91.7435L1654 93.0085L1641.62 94.5035L1648.14 101.722Z" fill="#F7DA4E"/>
</g>
<defs>
<clipPath id="clip0_3_1224">
<rect width="1702" height="101.731" fill="white" transform="translate(-48)"/>
</clipPath>
</defs>
</svg>
