<svg width="1440" height="102" viewBox="0 0 1440 102" fill="none" xmlns="http://www.w3.org/2000/svg">
<g clip-path="url(#clip0_2006_47)">
<mask id="mask0_2006_47" style="mask-type:luminance" maskUnits="userSpaceOnUse" x="-149" y="0" width="1702" height="102">
<path d="M1553 0H-149V102H1553V0Z" fill="white"/>
</mask>
<g mask="url(#mask0_2006_47)">
<path d="M1560.09 101.991L1535.76 89.5824L1511.78 102L1487.78 89.5824L1463.8 102L1439.8 89.5824L1415.81 102L1391.82 89.5824L1367.83 102L1343.84 89.5824L1319.84 102L1295.86 89.5824L1271.86 102L1247.88 89.5824L1223.88 102L1199.89 89.5824L1175.91 102L1151.91 89.5824L1127.92 102L1103.93 89.5824L1079.93 102L1055.95 89.5824L1031.95 102L1007.96 89.5824L983.96 102L959.969 89.5824L935.976 102L911.984 89.5824L887.992 102L864.001 89.5824L840.009 102L816.017 89.5824L792.025 102L768.034 89.5824L744.041 102L720.04 89.5824L696.048 102L672.057 89.5824L648.065 102L624.073 89.5824L600.081 102L576.081 89.5824L552.088 102L528.105 89.5824L504.104 102L480.122 89.5824L456.13 102L432.137 89.5824L408.146 102L384.154 89.5824L360.153 102L336.161 89.5824L312.17 102L288.178 89.5824L264.186 102L240.193 89.5824L216.193 102L192.201 89.5824L168.2 102L144.208 89.5824L120.217 102L96.2157 89.5824L72.2238 102L48.2319 89.5824L24.24 102L0.239177 89.5824L-23.7527 102L-47.7535 89.5824L-71.7543 102L-95.7551 89.5824L-119.756 102L-143.426 89.5913L-150 94.5316L-137.513 93.2722L-150 92.0038L-137.513 90.7443L-150 89.4848L-137.513 88.2342L-150 86.9748L-137.513 85.7152L-150 84.4558L-137.513 83.1963L-150 81.9369L-137.513 80.6774L-150 79.4179L-137.513 78.1496L-150 76.8901L-137.513 75.6307L-150 74.3711L-137.513 73.1116L-150 71.8522L-137.513 70.5927L-150 69.3332L-137.513 68.0649L-150 66.8054L-137.513 65.546L-150 64.2864L-137.513 63.027L-150 61.7587L-137.513 60.4991L-150 59.2397L-137.513 57.9802L-150 56.7208L-137.513 55.4524L-150 54.1929L-137.513 52.9334L-150 51.674L-137.513 50.4145L-150 49.155L-137.513 47.8955L-150 46.6361L-137.513 45.3766L-150 44.1171L-137.513 42.8576L-150 41.5893L-137.513 40.3299L-150 39.0703L-137.513 37.8109L-150 36.5514L-137.513 35.2919L-150 34.0325L-137.513 32.7641L-150 31.5046L-137.513 30.2452L-150 28.9768L-137.513 27.7173L-150 26.4579L-137.513 25.1895L-150 23.9212L-137.513 22.6617L-150 21.3933L-137.513 20.1339L-150 18.8656L-137.513 17.606L-150 16.3466L-137.513 15.0783L-150 13.8187L-137.513 12.5504L-150 11.2821L-137.513 10.0137L-150 8.74537L-137.513 7.47703L-144.087 0L-119.765 12.4173L-95.773 0L-71.7811 12.4173L-47.7981 0L-23.7973 12.4173L0.185655 0L24.1775 12.4173L48.1695 0L72.1613 12.4173L96.1532 0L120.145 12.4173L144.137 0L168.12 12.4173L192.121 0L216.104 12.4173L240.096 0L264.087 12.4173L288.079 0L312.072 12.4173L336.064 0L360.055 12.4173L384.047 0L408.039 12.4173L432.04 0L456.031 12.4173L480.023 0L504.016 12.4173L528.008 0L551.999 12.4173L575.991 0L599.983 12.4173L623.974 0L647.967 12.4173L671.959 0L695.96 12.4173L719.951 0L743.943 12.4173L767.935 0L791.927 12.4173L815.918 0L839.919 12.4173L863.912 0L887.895 12.4173L911.895 0L935.878 12.4173L959.87 0L983.863 12.4173L1007.86 0L1031.84 12.4173L1055.85 0L1079.84 12.4173L1103.83 0L1127.83 12.4173L1151.81 0L1175.81 12.4173L1199.8 0L1223.8 12.4173L1247.8 0L1271.79 12.4173L1295.79 0L1319.78 12.4173L1343.78 0L1367.77 12.4173L1391.76 0L1415.76 12.4173L1439.75 0L1463.76 12.4173L1487.75 0L1511.76 12.4173L1535.75 0L1559.43 12.4085L1566 7.46816L1553.52 8.72764L1566 9.99598L1553.52 11.2555L1566 12.5149L1553.52 13.7655L1566 15.025L1553.52 16.2844L1566 17.544L1553.52 18.8034L1566 20.0629L1553.52 21.3224L1566 22.5819L1553.52 23.8502L1566 25.1097L1553.52 26.3691L1566 27.6287L1553.52 28.8881L1566 30.1476L1553.52 31.407L1566 32.6665L1553.52 33.9349L1566 35.1943L1553.52 36.4538L1566 37.7133L1553.52 38.9728L1566 40.2411L1553.52 41.5006L1566 42.7601L1553.52 44.0196L1566 45.279L1553.52 46.5474L1566 47.8069L1553.52 49.0663L1566 50.3258L1553.52 51.5852L1566 52.8448L1553.52 54.1042L1566 55.3637L1553.52 56.6231L1566 57.8826L1553.52 59.1422L1566 60.4105L1553.52 61.6699L1566 62.9295L1553.52 64.1889L1566 65.4484L1553.52 66.7078L1566 67.9673L1553.52 69.2357L1566 70.4951L1553.52 71.7546L1566 73.023L1553.52 74.2824L1566 75.5419L1553.52 76.8103L1566 78.0786L1553.52 79.338L1566 80.6064L1553.52 81.8659L1566 83.1342L1553.52 84.3938L1566 85.6532L1553.52 86.9215L1566 88.1811L1553.52 89.4494L1566 90.7177L1553.52 91.9861L1566 93.2544L1553.52 94.7534L1560.09 101.991Z" fill="#251605"/>
</g>
</g>
<defs>
<clipPath id="clip0_2006_47">
<rect width="1440" height="102" fill="white"/>
</clipPath>
</defs>
</svg>
